<?xml version="1.0" encoding="utf-8"?>
<!-- Generator: Adobe Illustrator 16.0.0, SVG Export Plug-In . SVG Version: 6.00 Build 0)  -->
<!DOCTYPE svg PUBLIC "-//W3C//DTD SVG 1.1//EN" "http://www.w3.org/Graphics/SVG/1.1/DTD/svg11.dtd">
<svg version="1.1" id="圖層_1" xmlns="http://www.w3.org/2000/svg" xmlns:xlink="http://www.w3.org/1999/xlink" x="0px" y="0px"
	 width="308px" height="72px" viewBox="0 0 308 72" enable-background="new 0 0 308 72" xml:space="preserve">
<g>
	<text transform="matrix(1 0 0 1 31.001 46.3682)" fill="#F5BD1B" font-family="'Algerian'" font-size="31">SlapJack Game</text>
	<path fill="none" stroke="#FFFFFF" stroke-miterlimit="10" d="M302.381,14.524c-4.247,0-7.69-3.443-7.69-7.69
		c0,4.247-3.442,7.69-7.69,7.69c4.248,0,7.69,3.443,7.69,7.69C294.69,17.967,298.134,14.524,302.381,14.524z"/>
	<path fill="none" stroke="#FFFFFF" stroke-miterlimit="10" d="M21,14.524c-4.247,0-7.69-3.443-7.69-7.69
		c0,4.247-3.442,7.69-7.69,7.69c4.248,0,7.69,3.443,7.69,7.69C13.31,17.967,16.753,14.524,21,14.524z"/>
	<path fill="none" stroke="#FFFFFF" stroke-miterlimit="10" d="M21,57.477c-4.247,0-7.69-3.443-7.69-7.689
		c0,4.246-3.442,7.689-7.69,7.689c4.248,0,7.69,3.443,7.69,7.689C13.31,60.92,16.753,57.477,21,57.477z"/>
	<path fill="none" stroke="#FFFFFF" stroke-miterlimit="10" d="M302.381,57.477c-4.248,0-7.691-3.443-7.691-7.689
		c0,4.246-3.441,7.689-7.689,7.689c4.248,0,7.689,3.443,7.689,7.689C294.689,60.92,298.133,57.477,302.381,57.477z"/>
	<line fill="none" stroke="#FFFFFF" stroke-miterlimit="10" x1="21" y1="14.524" x2="287" y2="14.524"/>
	<line fill="none" stroke="#FFFFFF" stroke-miterlimit="10" x1="21" y1="57.477" x2="287" y2="57.477"/>
</g>
</svg>
