<?xml version="1.0" encoding="utf-8"?>
<!-- Generator: Adobe Illustrator 16.0.0, SVG Export Plug-In . SVG Version: 6.00 Build 0)  -->
<!DOCTYPE svg PUBLIC "-//W3C//DTD SVG 1.1//EN" "http://www.w3.org/Graphics/SVG/1.1/DTD/svg11.dtd">
<svg version="1.1" xmlns="http://www.w3.org/2000/svg" xmlns:xlink="http://www.w3.org/1999/xlink" x="0px" y="0px"
	 width="841.89px" height="595.28px" viewBox="0 0 841.89 595.28" enable-background="new 0 0 841.89 595.28" xml:space="preserve">
<g id="圖層_2" display="none">
	<rect display="inline" fill="#051E0F" width="841.89" height="595.28"/>
</g>
<g id="圖層_1" display="none">
	<g display="inline">
		
			<circle fill="none" stroke="#727272" stroke-width="80" stroke-miterlimit="10" stroke-dasharray="0.9718,77.7423" cx="420.944" cy="297.641" r="200.436"/>
	</g>
	<g display="inline">
		
			<circle fill="none" stroke="#727272" stroke-width="40" stroke-miterlimit="10" stroke-dasharray="0.9718,77.7424" cx="420.944" cy="297.641" r="200.436"/>
	</g>
	<g display="inline">
		
			<circle fill="none" stroke="#727272" stroke-width="20" stroke-miterlimit="10" stroke-dasharray="0.9718,77.7424" cx="420.944" cy="297.64" r="200.436"/>
	</g>
	<g display="inline">
		
			<circle fill="none" stroke="#727272" stroke-width="20" stroke-miterlimit="10" stroke-dasharray="0.9718,77.7424" cx="420.944" cy="297.64" r="200.436"/>
	</g>
	<g display="inline" opacity="0.7">
		<defs>
			<polygon id="SVGID_1_" opacity="0.7" points="749.268,76.313 661.83,90.925 661.835,90.94 661.817,90.938 648.877,176.893 
				734.028,164.479 			"/>
		</defs>
		<clipPath id="SVGID_2_">
			<use xlink:href="#SVGID_1_"  overflow="visible"/>
		</clipPath>
		<g clip-path="url(#SVGID_2_)">
			<line fill="none" stroke="#FFFFFF" stroke-miterlimit="10" x1="568.204" y1="183.399" x2="705.224" y2="46.374"/>
			<line fill="none" stroke="#FFFFFF" stroke-miterlimit="10" x1="573.873" y1="183.399" x2="710.893" y2="46.374"/>
			<line fill="none" stroke="#FFFFFF" stroke-miterlimit="10" x1="579.542" y1="183.399" x2="716.562" y2="46.374"/>
			<line fill="none" stroke="#FFFFFF" stroke-miterlimit="10" x1="585.211" y1="183.399" x2="722.23" y2="46.374"/>
			<line fill="none" stroke="#FFFFFF" stroke-miterlimit="10" x1="590.88" y1="183.399" x2="727.899" y2="46.374"/>
			<line fill="none" stroke="#FFFFFF" stroke-miterlimit="10" x1="596.549" y1="183.399" x2="733.568" y2="46.374"/>
			<line fill="none" stroke="#FFFFFF" stroke-miterlimit="10" x1="602.218" y1="183.399" x2="739.237" y2="46.374"/>
			<line fill="none" stroke="#FFFFFF" stroke-miterlimit="10" x1="607.887" y1="183.399" x2="744.906" y2="46.374"/>
			<line fill="none" stroke="#FFFFFF" stroke-miterlimit="10" x1="613.556" y1="183.399" x2="750.575" y2="46.374"/>
			<line fill="none" stroke="#FFFFFF" stroke-miterlimit="10" x1="619.225" y1="183.399" x2="756.244" y2="46.374"/>
			<line fill="none" stroke="#FFFFFF" stroke-miterlimit="10" x1="624.894" y1="183.399" x2="761.913" y2="46.374"/>
			<line fill="none" stroke="#FFFFFF" stroke-miterlimit="10" x1="630.563" y1="183.399" x2="767.582" y2="46.374"/>
			<line fill="none" stroke="#FFFFFF" stroke-miterlimit="10" x1="636.231" y1="183.399" x2="773.251" y2="46.374"/>
			<line fill="none" stroke="#FFFFFF" stroke-miterlimit="10" x1="641.9" y1="183.399" x2="778.92" y2="46.374"/>
			<line fill="none" stroke="#FFFFFF" stroke-miterlimit="10" x1="647.569" y1="183.399" x2="784.589" y2="46.374"/>
			<line fill="none" stroke="#FFFFFF" stroke-miterlimit="10" x1="653.238" y1="183.399" x2="790.258" y2="46.374"/>
			<line fill="none" stroke="#FFFFFF" stroke-miterlimit="10" x1="658.907" y1="183.399" x2="795.927" y2="46.374"/>
			<line fill="none" stroke="#FFFFFF" stroke-miterlimit="10" x1="664.576" y1="183.399" x2="801.596" y2="46.374"/>
			<line fill="none" stroke="#FFFFFF" stroke-miterlimit="10" x1="670.245" y1="183.399" x2="807.265" y2="46.374"/>
			<line fill="none" stroke="#FFFFFF" stroke-miterlimit="10" x1="675.914" y1="183.399" x2="812.934" y2="46.374"/>
			<line fill="none" stroke="#FFFFFF" stroke-miterlimit="10" x1="681.583" y1="183.399" x2="818.603" y2="46.374"/>
			<line fill="none" stroke="#FFFFFF" stroke-miterlimit="10" x1="687.252" y1="183.399" x2="824.271" y2="46.374"/>
			<line fill="none" stroke="#FFFFFF" stroke-miterlimit="10" x1="692.921" y1="183.399" x2="829.94" y2="46.374"/>
			<line fill="none" stroke="#FFFFFF" stroke-miterlimit="10" x1="698.59" y1="183.399" x2="835.609" y2="46.374"/>
			<line fill="none" stroke="#FFFFFF" stroke-miterlimit="10" x1="704.259" y1="183.399" x2="841.278" y2="46.374"/>
			<line fill="none" stroke="#FFFFFF" stroke-miterlimit="10" x1="709.928" y1="183.399" x2="846.947" y2="46.374"/>
			<line fill="none" stroke="#FFFFFF" stroke-miterlimit="10" x1="715.597" y1="183.399" x2="852.616" y2="46.374"/>
			<line fill="none" stroke="#FFFFFF" stroke-miterlimit="10" x1="721.266" y1="183.399" x2="858.285" y2="46.374"/>
		</g>
	</g>
	<g display="inline" opacity="0.7">
		<defs>
			<path id="SVGID_3_" opacity="0.7" d="M81.739,503.926l31.186-8.355l-8.356,31.186L81.739,503.926z M112.75,427.752
				c-16.72,1.471-29.08,16.2-27.62,32.92c1.46,16.721,16.2,29.08,32.91,27.62l2.37-0.21l-0.21,2.37
				c-1.46,16.72,10.91,31.45,27.62,32.92c16.72,1.46,31.46-10.91,32.92-27.62l6.521-74.52L112.75,427.752z"/>
		</defs>
		<clipPath id="SVGID_4_">
			<use xlink:href="#SVGID_3_"  overflow="visible"/>
		</clipPath>
		<g clip-path="url(#SVGID_4_)">
			<line fill="none" stroke="#FFFFFF" stroke-miterlimit="10" x1="-1.61" y1="528.318" x2="135.41" y2="391.292"/>
			<line fill="none" stroke="#FFFFFF" stroke-miterlimit="10" x1="4.059" y1="528.318" x2="141.079" y2="391.292"/>
			<line fill="none" stroke="#FFFFFF" stroke-miterlimit="10" x1="9.728" y1="528.318" x2="146.748" y2="391.292"/>
			<line fill="none" stroke="#FFFFFF" stroke-miterlimit="10" x1="15.397" y1="528.318" x2="152.417" y2="391.292"/>
			<line fill="none" stroke="#FFFFFF" stroke-miterlimit="10" x1="21.066" y1="528.318" x2="158.085" y2="391.292"/>
			<line fill="none" stroke="#FFFFFF" stroke-miterlimit="10" x1="26.735" y1="528.318" x2="163.754" y2="391.292"/>
			<line fill="none" stroke="#FFFFFF" stroke-miterlimit="10" x1="32.404" y1="528.318" x2="169.423" y2="391.292"/>
			<line fill="none" stroke="#FFFFFF" stroke-miterlimit="10" x1="38.073" y1="528.318" x2="175.092" y2="391.292"/>
			<line fill="none" stroke="#FFFFFF" stroke-miterlimit="10" x1="43.742" y1="528.318" x2="180.761" y2="391.292"/>
			<line fill="none" stroke="#FFFFFF" stroke-miterlimit="10" x1="49.411" y1="528.318" x2="186.43" y2="391.292"/>
			<line fill="none" stroke="#FFFFFF" stroke-miterlimit="10" x1="55.08" y1="528.318" x2="192.099" y2="391.292"/>
			<line fill="none" stroke="#FFFFFF" stroke-miterlimit="10" x1="60.749" y1="528.318" x2="197.768" y2="391.292"/>
			<line fill="none" stroke="#FFFFFF" stroke-miterlimit="10" x1="66.417" y1="528.318" x2="203.437" y2="391.292"/>
			<line fill="none" stroke="#FFFFFF" stroke-miterlimit="10" x1="72.086" y1="528.318" x2="209.106" y2="391.292"/>
			<line fill="none" stroke="#FFFFFF" stroke-miterlimit="10" x1="77.755" y1="528.318" x2="214.775" y2="391.292"/>
			<line fill="none" stroke="#FFFFFF" stroke-miterlimit="10" x1="83.424" y1="528.318" x2="220.444" y2="391.292"/>
			<line fill="none" stroke="#FFFFFF" stroke-miterlimit="10" x1="89.093" y1="528.318" x2="226.113" y2="391.292"/>
			<line fill="none" stroke="#FFFFFF" stroke-miterlimit="10" x1="94.762" y1="528.318" x2="231.782" y2="391.292"/>
			<line fill="none" stroke="#FFFFFF" stroke-miterlimit="10" x1="100.431" y1="528.318" x2="237.451" y2="391.292"/>
			<line fill="none" stroke="#FFFFFF" stroke-miterlimit="10" x1="106.1" y1="528.318" x2="243.12" y2="391.292"/>
			<line fill="none" stroke="#FFFFFF" stroke-miterlimit="10" x1="111.769" y1="528.318" x2="248.789" y2="391.292"/>
			<line fill="none" stroke="#FFFFFF" stroke-miterlimit="10" x1="117.438" y1="528.318" x2="254.458" y2="391.292"/>
			<line fill="none" stroke="#FFFFFF" stroke-miterlimit="10" x1="123.107" y1="528.318" x2="260.126" y2="391.292"/>
			<line fill="none" stroke="#FFFFFF" stroke-miterlimit="10" x1="128.776" y1="528.318" x2="265.795" y2="391.292"/>
			<line fill="none" stroke="#FFFFFF" stroke-miterlimit="10" x1="134.445" y1="528.318" x2="271.464" y2="391.292"/>
			<line fill="none" stroke="#FFFFFF" stroke-miterlimit="10" x1="140.114" y1="528.318" x2="277.133" y2="391.292"/>
			<line fill="none" stroke="#FFFFFF" stroke-miterlimit="10" x1="145.783" y1="528.318" x2="282.802" y2="391.292"/>
			<line fill="none" stroke="#FFFFFF" stroke-miterlimit="10" x1="151.452" y1="528.318" x2="288.471" y2="391.292"/>
			<line fill="none" stroke="#FFFFFF" stroke-miterlimit="10" x1="157.121" y1="528.318" x2="294.14" y2="391.292"/>
		</g>
	</g>
	<text transform="matrix(1 0 0 1 296.627 305.54)" display="inline" fill="#FFC200" font-family="'Algerian'" font-size="31">SlapJack Game</text>
	<polygon display="inline" opacity="0.5" fill="#FFFFFF" points="522.037,232.92 510.459,249.077 510.463,249.079 510.459,249.082 
		522.005,264.782 533.565,249.336 	"/>
	<g display="inline" opacity="0.5">
		<path fill="#FFFFFF" d="M534.012,355.474c0,3.597-2.916,6.513-6.512,6.512c-3.598,0-6.514-2.915-6.514-6.511
			c0,3.596-2.914,6.51-6.509,6.509c-3.596,0.001-6.512-2.913-6.512-6.509c-0.001-3.597,2.915-6.512,6.511-6.512
			c1.085,0,2.108,0.265,3.006,0.736c-1.807-1.156-3.005-3.181-3.005-5.486c0-3.596,2.915-6.512,6.509-6.512
			c3.598,0.001,6.514,2.916,6.514,6.514c0.001,2.297-1.189,4.314-2.985,5.473c0.896-0.465,1.91-0.725,2.986-0.725
			C531.096,348.963,534.012,351.876,534.012,355.474z"/>
		<polygon fill="#FFFFFF" points="517.751,365.585 521.024,359.914 524.299,365.585 		"/>
	</g>
	<g display="inline" opacity="0.5">
		<polygon fill="#FFFFFF" points="317.556,368.019 321.18,361.742 324.803,368.018 		"/>
		<path fill="#FFFFFF" d="M321.18,338.146l10.79,12.86c2.422,2.885,2.047,7.188-0.839,9.607c-2.886,2.422-7.188,2.045-9.609-0.839
			l-0.342-0.409l-0.342,0.408c-2.422,2.886-6.725,3.262-9.609,0.842c-2.885-2.423-3.263-6.724-0.841-9.609L321.18,338.146z"/>
	</g>
	<g display="inline" opacity="0.5">
		<path fill="#FFFFFF" d="M309.886,238.776c3.275-2.747,8.157-2.321,10.905,0.956l0.389,0.464l0.389-0.464
			c2.747-3.275,7.629-3.702,10.904-0.956c3.274,2.748,3.702,7.63,0.954,10.905l-12.246,14.594l-12.247-14.594
			C306.185,246.406,306.612,241.524,309.886,238.776z"/>
	</g>
	
		<rect x="419.766" y="393.256" transform="matrix(0.707 -0.7072 0.7072 0.707 -155.9799 414.163)" display="inline" fill="#FFFFFF" width="4.13" height="4.13"/>
	
		<rect x="419.766" y="197.905" transform="matrix(0.707 -0.7072 0.7072 0.707 -17.8223 356.9227)" display="inline" fill="#FFFFFF" width="4.13" height="4.13"/>
	<path display="inline" fill="none" stroke="#727272" stroke-miterlimit="10" d="M555.96,526.756c-4.247,0-7.69-3.443-7.69-7.689
		c0,4.246-3.442,7.689-7.69,7.689c4.248,0,7.69,3.443,7.69,7.69C548.27,530.199,551.713,526.756,555.96,526.756z"/>
	<path display="inline" fill="none" stroke="#727272" stroke-miterlimit="10" d="M190.756,404.064c-4.247,0-7.69-3.443-7.69-7.689
		c0,4.246-3.442,7.689-7.69,7.689c4.248,0,7.69,3.443,7.69,7.69C183.065,407.508,186.509,404.064,190.756,404.064z"/>
	<path display="inline" fill="none" stroke="#727272" stroke-miterlimit="10" d="M202.641,176.893c-4.247,0-7.69-3.443-7.69-7.689
		c0,4.246-3.442,7.689-7.69,7.689c4.248,0,7.69,3.443,7.69,7.69C194.951,180.336,198.394,176.893,202.641,176.893z"/>
	<path display="inline" fill="none" stroke="#FFFFFF" stroke-miterlimit="10" d="M650.752,76.313c-4.247,0-7.69-3.443-7.69-7.689
		c0,4.246-3.442,7.689-7.69,7.689c4.248,0,7.69,3.443,7.69,7.69C643.062,79.756,646.505,76.313,650.752,76.313z"/>
	
		<rect x="278.978" y="155.674" transform="matrix(0.7071 0.7071 -0.7071 0.7071 333.7565 -210.476)" display="inline" fill="none" stroke="#727272" stroke-miterlimit="10" width="283.933" height="283.933"/>
	<path display="inline" fill="none" stroke="#FFFFFF" stroke-miterlimit="10" d="M568.007,273.696c-4.247,0-7.69-3.443-7.69-7.69
		c0,4.247-3.442,7.69-7.69,7.69c4.248,0,7.69,3.443,7.69,7.69C560.316,277.139,563.76,273.696,568.007,273.696z"/>
	<path display="inline" fill="none" stroke="#FFFFFF" stroke-miterlimit="10" d="M286.626,273.696c-4.247,0-7.69-3.443-7.69-7.69
		c0,4.247-3.442,7.69-7.69,7.69c4.248,0,7.69,3.443,7.69,7.69C278.936,277.139,282.379,273.696,286.626,273.696z"/>
	<path display="inline" fill="none" stroke="#FFFFFF" stroke-miterlimit="10" d="M286.626,316.648c-4.247,0-7.69-3.443-7.69-7.689
		c0,4.246-3.442,7.689-7.69,7.689c4.248,0,7.69,3.443,7.69,7.689C278.936,320.092,282.379,316.648,286.626,316.648z"/>
	<path display="inline" fill="none" stroke="#FFFFFF" stroke-miterlimit="10" d="M568.007,316.648c-4.248,0-7.691-3.443-7.691-7.689
		c0,4.246-3.441,7.689-7.689,7.689c4.248,0,7.689,3.443,7.689,7.689C560.315,320.092,563.759,316.648,568.007,316.648z"/>
	
		<line display="inline" fill="none" stroke="#FFFFFF" stroke-miterlimit="10" x1="286.626" y1="273.696" x2="552.626" y2="273.696"/>
	
		<line display="inline" fill="none" stroke="#FFFFFF" stroke-miterlimit="10" x1="286.626" y1="316.648" x2="552.626" y2="316.648"/>
	<path display="inline" fill="none" stroke="#727272" d="M820.445,493.109V102.171c-44.459,0-80.5-36.041-80.5-80.5h-638
		c0,44.459-36.041,80.5-80.5,80.5v390.938c44.459,0,80.5,36.041,80.5,80.5h638C739.945,529.15,775.986,493.109,820.445,493.109z"/>
	<g display="inline">
		<line fill="none" stroke="#727272" x1="409.658" y1="257.691" x2="433.324" y2="257.691"/>
		<line fill="none" stroke="#727272" x1="421.491" y1="269.525" x2="421.491" y2="245.858"/>
		<line fill="none" stroke="#727272" x1="413.96" y1="265.222" x2="429.022" y2="250.161"/>
		<line fill="none" stroke="#727272" x1="429.022" y1="265.222" x2="413.96" y2="250.161"/>
	</g>
	<g display="inline">
		<line fill="none" stroke="#727272" x1="737.435" y1="245.857" x2="761.102" y2="245.857"/>
		<line fill="none" stroke="#727272" x1="749.268" y1="257.691" x2="749.268" y2="234.024"/>
		<line fill="none" stroke="#727272" x1="741.737" y1="253.389" x2="756.799" y2="238.327"/>
		<line fill="none" stroke="#727272" x1="756.799" y1="253.389" x2="741.737" y2="238.327"/>
	</g>
	<g display="inline">
		<line fill="none" stroke="#727272" x1="687.239" y1="316.648" x2="710.906" y2="316.648"/>
		<line fill="none" stroke="#727272" x1="699.072" y1="328.482" x2="699.072" y2="304.815"/>
		<line fill="none" stroke="#727272" x1="691.542" y1="324.18" x2="706.604" y2="309.118"/>
		<line fill="none" stroke="#727272" x1="706.604" y1="324.18" x2="691.542" y2="309.118"/>
	</g>
	<g display="inline">
		<line fill="none" stroke="#727272" x1="718.07" y1="375.05" x2="741.737" y2="375.05"/>
		<line fill="none" stroke="#727272" x1="729.903" y1="386.884" x2="729.903" y2="363.217"/>
		<line fill="none" stroke="#727272" x1="722.373" y1="382.581" x2="737.435" y2="367.52"/>
		<line fill="none" stroke="#727272" x1="737.435" y1="382.581" x2="722.373" y2="367.52"/>
	</g>
	<g display="inline">
		<line fill="none" stroke="#727272" x1="89.079" y1="238.836" x2="112.746" y2="238.836"/>
		<line fill="none" stroke="#727272" x1="100.912" y1="250.67" x2="100.912" y2="227.003"/>
		<line fill="none" stroke="#727272" x1="93.381" y1="246.367" x2="108.443" y2="231.306"/>
		<line fill="none" stroke="#727272" x1="108.443" y1="246.367" x2="93.381" y2="231.306"/>
	</g>
	<g display="inline">
		<line fill="none" stroke="#727272" x1="122.665" y1="309.117" x2="146.332" y2="309.117"/>
		<line fill="none" stroke="#727272" x1="134.498" y1="320.951" x2="134.498" y2="297.285"/>
		<line fill="none" stroke="#727272" x1="126.968" y1="316.648" x2="142.029" y2="301.588"/>
		<line fill="none" stroke="#727272" x1="142.029" y1="316.648" x2="126.968" y2="301.588"/>
	</g>
	<g display="inline">
		<line fill="none" stroke="#FFFFFF" x1="71.541" y1="376.933" x2="95.208" y2="376.933"/>
		<line fill="none" stroke="#FFFFFF" x1="83.374" y1="388.767" x2="83.374" y2="365.1"/>
		<line fill="none" stroke="#FFFFFF" x1="75.844" y1="384.464" x2="90.905" y2="369.403"/>
		<line fill="none" stroke="#FFFFFF" x1="90.905" y1="384.464" x2="75.844" y2="369.403"/>
	</g>
	<g display="inline">
		<line fill="none" stroke="#727272" x1="409.659" y1="333.91" x2="433.325" y2="333.91"/>
		<line fill="none" stroke="#727272" x1="421.492" y1="345.744" x2="421.492" y2="322.077"/>
		<line fill="none" stroke="#727272" x1="413.961" y1="341.441" x2="429.023" y2="326.38"/>
		<line fill="none" stroke="#727272" x1="429.023" y1="341.441" x2="413.961" y2="326.38"/>
	</g>
	<g display="inline">
		<line fill="none" stroke="#727272" x1="250.875" y1="522.9" x2="267.125" y2="522.9"/>
		<line fill="none" stroke="#727272" x1="259" y1="535.826" x2="259" y2="509.974"/>
	</g>
	<g display="inline">
		<line fill="none" stroke="#FFFFFF" x1="145.525" y1="197.05" x2="161.775" y2="197.05"/>
		<line fill="none" stroke="#FFFFFF" x1="153.65" y1="209.976" x2="153.65" y2="184.124"/>
	</g>
	<g display="inline">
		<line fill="none" stroke="#727272" x1="576.457" y1="96.869" x2="592.707" y2="96.869"/>
		<line fill="none" stroke="#727272" x1="584.582" y1="109.795" x2="584.582" y2="83.942"/>
	</g>
	<g display="inline">
		<line fill="none" stroke="#727272" x1="592.707" y1="493.076" x2="608.957" y2="493.076"/>
		<line fill="none" stroke="#727272" x1="600.832" y1="506.002" x2="600.832" y2="480.149"/>
	</g>
	<g display="inline">
		<line fill="none" stroke="#727272" x1="414.01" y1="229.359" x2="428.975" y2="214.395"/>
		<line fill="none" stroke="#727272" x1="428.975" y1="229.359" x2="414.01" y2="214.395"/>
	</g>
	<g display="inline">
		<line fill="none" stroke="#727272" x1="396.581" y1="236.035" x2="404.166" y2="216.278"/>
		<line fill="none" stroke="#727272" x1="410.252" y1="229.948" x2="390.494" y2="222.365"/>
	</g>
	<g display="inline">
		<line fill="none" stroke="#727272" x1="383.375" y1="249.223" x2="382.268" y2="228.089"/>
		<line fill="none" stroke="#727272" x1="393.388" y1="238.102" x2="372.254" y2="239.211"/>
	</g>
	<g display="inline">
		<line fill="none" stroke="#727272" x1="376.674" y1="266.642" x2="367.066" y2="247.786"/>
		<line fill="none" stroke="#727272" x1="381.298" y1="252.41" x2="362.442" y2="262.019"/>
	</g>
	<g display="inline">
		<line fill="none" stroke="#727272" x1="461.007" y1="253.35" x2="479.863" y2="262.956"/>
		<line fill="none" stroke="#727272" x1="465.631" y1="267.579" x2="475.236" y2="248.722"/>
	</g>
	<g display="inline">
		<line fill="none" stroke="#727272" x1="449.272" y1="238.836" x2="470.406" y2="239.942"/>
		<line fill="none" stroke="#727272" x1="459.285" y1="249.955" x2="460.39" y2="228.821"/>
	</g>
	<g display="inline">
		<line fill="none" stroke="#727272" x1="432.649" y1="230.351" x2="452.406" y2="222.766"/>
		<line fill="none" stroke="#727272" x1="446.318" y1="236.435" x2="438.732" y2="216.679"/>
	</g>
	<g display="inline">
		<line fill="none" stroke="#727272" x1="414.349" y1="361.97" x2="429.313" y2="376.934"/>
		<line fill="none" stroke="#727272" x1="429.313" y1="361.97" x2="414.349" y2="376.934"/>
	</g>
	<g display="inline">
		<line fill="none" stroke="#727272" x1="396.92" y1="355.294" x2="404.505" y2="375.051"/>
		<line fill="none" stroke="#727272" x1="410.591" y1="361.381" x2="390.833" y2="368.964"/>
	</g>
	<g display="inline">
		<line fill="none" stroke="#727272" x1="383.714" y1="342.106" x2="382.606" y2="363.24"/>
		<line fill="none" stroke="#727272" x1="393.727" y1="353.228" x2="372.593" y2="352.118"/>
	</g>
	<g display="inline">
		<line fill="none" stroke="#727272" x1="377.013" y1="324.688" x2="367.405" y2="343.543"/>
		<line fill="none" stroke="#727272" x1="381.637" y1="338.919" x2="362.781" y2="329.311"/>
	</g>
	<g display="inline">
		<line fill="none" stroke="#727272" x1="461.346" y1="337.979" x2="480.202" y2="328.373"/>
		<line fill="none" stroke="#727272" x1="465.97" y1="323.75" x2="475.575" y2="342.607"/>
	</g>
	<g display="inline">
		<line fill="none" stroke="#727272" x1="449.611" y1="352.492" x2="470.745" y2="351.387"/>
		<line fill="none" stroke="#727272" x1="459.624" y1="341.375" x2="460.729" y2="362.508"/>
	</g>
	<g display="inline">
		<line fill="none" stroke="#727272" x1="432.988" y1="360.979" x2="452.745" y2="368.563"/>
		<line fill="none" stroke="#727272" x1="446.657" y1="354.895" x2="439.071" y2="374.65"/>
	</g>
	<circle display="inline" fill="none" stroke="#727272" cx="220.509" cy="454.868" r="4.136"/>
	<circle display="inline" fill="none" stroke="#727272" cx="83.374" cy="301.588" r="4.136"/>
	<circle display="inline" fill="none" stroke="#727272" cx="202.641" cy="76.313" r="4.136"/>
	<circle display="inline" fill="none" stroke="#727272" cx="635.371" cy="131.939" r="4.136"/>
	<circle display="inline" fill="none" stroke="#727272" cx="749.269" cy="304.815" r="4.136"/>
	<circle display="inline" fill="none" stroke="#FFFFFF" cx="772" cy="437.86" r="4.136"/>
	<circle display="inline" fill="none" stroke="#727272" cx="375.674" cy="214.395" r="3.292"/>
	<circle display="inline" fill="none" stroke="#727272" cx="467.46" cy="214.395" r="3.292"/>
	<circle display="inline" fill="none" stroke="#727272" cx="375.674" cy="380.744" r="3.292"/>
	<circle display="inline" fill="none" stroke="#727272" cx="467.25" cy="380.744" r="3.292"/>
	<g display="inline">
		<circle fill="none" stroke="#727272" stroke-width="0.5" stroke-miterlimit="10" cx="441.704" cy="261.852" r="1.963"/>
		<g>
			<circle fill="none" stroke="#727272" stroke-width="0.5" stroke-miterlimit="10" cx="444.412" cy="266.591" r="1.963"/>
			<circle fill="none" stroke="#727272" stroke-width="0.5" stroke-miterlimit="10" cx="438.996" cy="266.591" r="1.963"/>
		</g>
	</g>
	<g display="inline">
		<circle fill="none" stroke="#727272" stroke-width="0.5" stroke-miterlimit="10" cx="401.292" cy="261.852" r="1.963"/>
		<g>
			<circle fill="none" stroke="#727272" stroke-width="0.5" stroke-miterlimit="10" cx="404" cy="266.591" r="1.963"/>
			<circle fill="none" stroke="#727272" stroke-width="0.5" stroke-miterlimit="10" cx="398.583" cy="266.591" r="1.963"/>
		</g>
	</g>
	<g display="inline">
		<circle fill="none" stroke="#727272" stroke-width="0.5" stroke-miterlimit="10" cx="441.65" cy="328.75" r="1.963"/>
		<g>
			<circle fill="none" stroke="#727272" stroke-width="0.5" stroke-miterlimit="10" cx="444.358" cy="324.011" r="1.963"/>
			<circle fill="none" stroke="#727272" stroke-width="0.5" stroke-miterlimit="10" cx="438.942" cy="324.011" r="1.963"/>
		</g>
	</g>
	<g display="inline">
		<circle fill="none" stroke="#727272" stroke-width="0.5" stroke-miterlimit="10" cx="401.238" cy="328.75" r="1.963"/>
		<g>
			<circle fill="none" stroke="#727272" stroke-width="0.5" stroke-miterlimit="10" cx="403.946" cy="324.011" r="1.963"/>
			<circle fill="none" stroke="#727272" stroke-width="0.5" stroke-miterlimit="10" cx="398.53" cy="324.011" r="1.963"/>
		</g>
	</g>
	<g display="inline">
		<path fill="none" stroke="#727272" d="M350.945,316.648v79.66c0,4.971,4.029,9,9,9h122c4.971,0,9-4.029,9-9v-79.66"/>
		<path fill="none" stroke="#727272" d="M490.945,273.696v-74.725c0-4.971-4.029-9-9-9h-122c-4.971,0-9,4.029-9,9v74.725"/>
	</g>
	<polygon display="inline" fill="none" stroke="#727272" stroke-linejoin="round" points="483.434,198.299 451.487,198.299 
		459.475,206.287 459.475,206.286 475.447,206.286 475.447,222.259 475.447,222.259 483.434,230.246 	"/>
	<polygon display="inline" fill="none" stroke="#727272" stroke-linejoin="round" points="359.701,198.299 391.647,198.299 
		383.66,206.287 383.66,206.286 367.687,206.286 367.687,222.259 367.687,222.259 359.701,230.246 	"/>
	<polygon display="inline" fill="none" stroke="#727272" stroke-linejoin="round" points="483.434,396.717 451.487,396.717 
		459.475,388.729 459.475,388.73 475.447,388.73 475.447,372.758 475.447,372.758 483.434,364.771 	"/>
	<polygon display="inline" fill="none" stroke="#727272" stroke-linejoin="round" points="359.701,396.717 391.647,396.717 
		383.66,388.729 383.66,388.73 367.687,388.73 367.687,372.758 367.687,372.758 359.701,364.771 	"/>
	<path display="inline" fill="none" stroke="#727272" stroke-miterlimit="10" d="M420.945,349.916
		c17.678,0,32.01-14.332,32.01-32.01h-64.021C388.935,335.584,403.267,349.916,420.945,349.916z"/>
	<path display="inline" fill="none" stroke="#727272" stroke-miterlimit="10" d="M420.944,241.686
		c-17.679,0-32.011,14.332-32.011,32.01h64.021C452.954,256.018,438.622,241.686,420.944,241.686z"/>
	<line display="inline" fill="none" stroke="#727272" stroke-miterlimit="10" x1="395.5" y1="395.322" x2="412.833" y2="395.322"/>
	
		<line display="inline" fill="none" stroke="#727272" stroke-miterlimit="10" x1="430.275" y1="395.322" x2="447.609" y2="395.322"/>
	<line display="inline" fill="none" stroke="#727272" stroke-miterlimit="10" x1="395.5" y1="199.971" x2="412.833" y2="199.971"/>
	
		<line display="inline" fill="none" stroke="#727272" stroke-miterlimit="10" x1="430.275" y1="199.971" x2="447.609" y2="199.971"/>
	<path display="inline" fill="none" stroke="#727272" stroke-miterlimit="10" d="M458.612,429.112c0,2.209-1.791,4-4,4h-67.334
		c-2.209,0-4-1.791-4-4l0,0c0-2.209,1.791-4,4-4h67.334C456.821,425.112,458.612,426.903,458.612,429.112L458.612,429.112z"/>
	<path display="inline" fill="none" stroke="#727272" stroke-miterlimit="10" d="M458.612,165.734c0,2.209-1.791,4-4,4h-67.334
		c-2.209,0-4-1.791-4-4l0,0c0-2.209,1.791-4,4-4h67.334C456.821,161.734,458.612,163.525,458.612,165.734L458.612,165.734z"/>
	
		<line display="inline" fill="none" stroke="#727272" stroke-miterlimit="10" x1="389.208" y1="165.734" x2="452.682" y2="165.734"/>
	
		<line display="inline" fill="none" stroke="#727272" stroke-miterlimit="10" x1="389.208" y1="429.112" x2="452.682" y2="429.112"/>
	<g display="inline">
		<rect x="37.317" y="42.742" fill="none" stroke="#FFFFFF" width="767.255" height="509.796"/>
		<rect x="21.445" y="26.87" fill="none" stroke="#FFFFFF" stroke-miterlimit="10" width="15.873" height="15.873"/>
		<rect x="21.445" y="552.539" fill="none" stroke="#FFFFFF" stroke-miterlimit="10" width="15.873" height="15.872"/>
		<rect x="804.572" y="26.87" fill="none" stroke="#FFFFFF" stroke-miterlimit="10" width="15.872" height="15.873"/>
		<rect x="804.572" y="552.539" fill="none" stroke="#FFFFFF" stroke-miterlimit="10" width="15.872" height="15.872"/>
	</g>
	<g display="inline" opacity="0.7">
		<defs>
			<path id="SVGID_5_" opacity="0.7" d="M182.954,117.875c-1.381,15.88-15.381,27.62-31.27,26.24l-2.24-0.2l0.189,2.25
				c1.391,15.88-10.35,29.88-26.23,31.27c-15.879,1.39-29.879-10.36-31.27-26.24l-6.199-70.79l70.789,6.2
				C172.604,87.995,184.343,101.995,182.954,117.875z"/>
		</defs>
		<clipPath id="SVGID_6_">
			<use xlink:href="#SVGID_5_"  overflow="visible"/>
		</clipPath>
		<g clip-path="url(#SVGID_6_)">
			<line fill="none" stroke="#FFFFFF" stroke-miterlimit="10" x1="-12.177" y1="57.253" x2="124.849" y2="194.279"/>
			<line fill="none" stroke="#FFFFFF" stroke-miterlimit="10" x1="-6.507" y1="57.253" x2="130.519" y2="194.279"/>
			<line fill="none" stroke="#FFFFFF" stroke-miterlimit="10" x1="-0.838" y1="57.253" x2="136.188" y2="194.279"/>
			<line fill="none" stroke="#FFFFFF" stroke-miterlimit="10" x1="4.832" y1="57.253" x2="141.857" y2="194.279"/>
			<line fill="none" stroke="#FFFFFF" stroke-miterlimit="10" x1="10.501" y1="57.253" x2="147.527" y2="194.279"/>
			<line fill="none" stroke="#FFFFFF" stroke-miterlimit="10" x1="16.17" y1="57.253" x2="153.196" y2="194.279"/>
			<line fill="none" stroke="#FFFFFF" stroke-miterlimit="10" x1="21.84" y1="57.253" x2="158.866" y2="194.279"/>
			<line fill="none" stroke="#FFFFFF" stroke-miterlimit="10" x1="27.509" y1="57.253" x2="164.535" y2="194.279"/>
			<line fill="none" stroke="#FFFFFF" stroke-miterlimit="10" x1="33.179" y1="57.253" x2="170.205" y2="194.279"/>
			<line fill="none" stroke="#FFFFFF" stroke-miterlimit="10" x1="38.848" y1="57.253" x2="175.874" y2="194.279"/>
			<line fill="none" stroke="#FFFFFF" stroke-miterlimit="10" x1="44.518" y1="57.253" x2="181.543" y2="194.279"/>
			<line fill="none" stroke="#FFFFFF" stroke-miterlimit="10" x1="50.187" y1="57.253" x2="187.213" y2="194.279"/>
			<line fill="none" stroke="#FFFFFF" stroke-miterlimit="10" x1="55.856" y1="57.253" x2="192.882" y2="194.279"/>
			<line fill="none" stroke="#FFFFFF" stroke-miterlimit="10" x1="61.526" y1="57.253" x2="198.552" y2="194.279"/>
			<line fill="none" stroke="#FFFFFF" stroke-miterlimit="10" x1="67.195" y1="57.253" x2="204.221" y2="194.279"/>
			<line fill="none" stroke="#FFFFFF" stroke-miterlimit="10" x1="72.865" y1="57.253" x2="209.89" y2="194.279"/>
			<line fill="none" stroke="#FFFFFF" stroke-miterlimit="10" x1="78.534" y1="57.253" x2="215.559" y2="194.279"/>
			<line fill="none" stroke="#FFFFFF" stroke-miterlimit="10" x1="84.204" y1="57.253" x2="221.228" y2="194.279"/>
			<line fill="none" stroke="#FFFFFF" stroke-miterlimit="10" x1="89.873" y1="57.253" x2="226.897" y2="194.279"/>
			<line fill="none" stroke="#FFFFFF" stroke-miterlimit="10" x1="95.542" y1="57.253" x2="232.566" y2="194.279"/>
			<line fill="none" stroke="#FFFFFF" stroke-miterlimit="10" x1="101.212" y1="57.253" x2="238.235" y2="194.279"/>
			<line fill="none" stroke="#FFFFFF" stroke-miterlimit="10" x1="106.881" y1="57.253" x2="243.904" y2="194.279"/>
			<line fill="none" stroke="#FFFFFF" stroke-miterlimit="10" x1="112.551" y1="57.253" x2="249.573" y2="194.279"/>
			<line fill="none" stroke="#FFFFFF" stroke-miterlimit="10" x1="118.22" y1="57.253" x2="255.242" y2="194.279"/>
			<line fill="none" stroke="#FFFFFF" stroke-miterlimit="10" x1="123.89" y1="57.253" x2="260.911" y2="194.279"/>
			<line fill="none" stroke="#FFFFFF" stroke-miterlimit="10" x1="129.559" y1="57.253" x2="266.58" y2="194.279"/>
			<line fill="none" stroke="#FFFFFF" stroke-miterlimit="10" x1="135.229" y1="57.253" x2="272.249" y2="194.279"/>
		</g>
	</g>
	<g display="inline" opacity="0.7">
		<defs>
			<path id="SVGID_7_" opacity="0.7" d="M746.316,438.537c11.088,11.09,11.088,29.068,0,40.15
				c-11.091,11.092-29.067,11.094-40.154,0.01c11.087,11.084,11.087,29.053,0,40.133c-11.083,11.088-29.055,11.094-40.142,0.009
				c-11.092-11.085-11.087-29.062-0.005-40.148c3.347-3.345,7.319-5.685,11.539-6.995c-9.133,2.005-19.07-0.543-26.177-7.651
				c-11.087-11.085-11.087-29.062-0.009-40.142c11.092-11.088,29.072-11.092,40.163,0c7.081,7.078,9.632,16.969,7.669,26.076
				c1.324-4.193,3.652-8.124,6.97-11.441C717.254,427.455,735.226,427.446,746.316,438.537z M747.543,499.656l-27.577-7.391
				l7.392,27.576L747.543,499.656z"/>
		</defs>
		<clipPath id="SVGID_8_">
			<use xlink:href="#SVGID_7_"  overflow="visible"/>
		</clipPath>
		<g clip-path="url(#SVGID_8_)">
			<line fill="none" stroke="#FFFFFF" stroke-miterlimit="10" x1="550.965" y1="402.854" x2="687.991" y2="539.88"/>
			<line fill="none" stroke="#FFFFFF" stroke-miterlimit="10" x1="556.634" y1="402.854" x2="693.66" y2="539.88"/>
			<line fill="none" stroke="#FFFFFF" stroke-miterlimit="10" x1="562.304" y1="402.854" x2="699.329" y2="539.88"/>
			<line fill="none" stroke="#FFFFFF" stroke-miterlimit="10" x1="567.974" y1="402.854" x2="704.999" y2="539.88"/>
			<line fill="none" stroke="#FFFFFF" stroke-miterlimit="10" x1="573.643" y1="402.854" x2="710.669" y2="539.88"/>
			<line fill="none" stroke="#FFFFFF" stroke-miterlimit="10" x1="579.312" y1="402.854" x2="716.338" y2="539.88"/>
			<line fill="none" stroke="#FFFFFF" stroke-miterlimit="10" x1="584.981" y1="402.854" x2="722.007" y2="539.88"/>
			<line fill="none" stroke="#FFFFFF" stroke-miterlimit="10" x1="590.651" y1="402.854" x2="727.677" y2="539.88"/>
			<line fill="none" stroke="#FFFFFF" stroke-miterlimit="10" x1="596.32" y1="402.854" x2="733.347" y2="539.88"/>
			<line fill="none" stroke="#FFFFFF" stroke-miterlimit="10" x1="601.989" y1="402.854" x2="739.016" y2="539.88"/>
			<line fill="none" stroke="#FFFFFF" stroke-miterlimit="10" x1="607.659" y1="402.854" x2="744.685" y2="539.88"/>
			<line fill="none" stroke="#FFFFFF" stroke-miterlimit="10" x1="613.329" y1="402.854" x2="750.354" y2="539.88"/>
			<line fill="none" stroke="#FFFFFF" stroke-miterlimit="10" x1="618.998" y1="402.854" x2="756.024" y2="539.88"/>
			<line fill="none" stroke="#FFFFFF" stroke-miterlimit="10" x1="624.667" y1="402.854" x2="761.693" y2="539.88"/>
			<line fill="none" stroke="#FFFFFF" stroke-miterlimit="10" x1="630.337" y1="402.854" x2="767.362" y2="539.88"/>
			<line fill="none" stroke="#FFFFFF" stroke-miterlimit="10" x1="636.007" y1="402.854" x2="773.032" y2="539.88"/>
			<line fill="none" stroke="#FFFFFF" stroke-miterlimit="10" x1="641.676" y1="402.854" x2="778.7" y2="539.88"/>
			<line fill="none" stroke="#FFFFFF" stroke-miterlimit="10" x1="647.345" y1="402.854" x2="784.37" y2="539.88"/>
			<line fill="none" stroke="#FFFFFF" stroke-miterlimit="10" x1="653.015" y1="402.854" x2="790.038" y2="539.88"/>
			<line fill="none" stroke="#FFFFFF" stroke-miterlimit="10" x1="658.685" y1="402.854" x2="795.708" y2="539.88"/>
			<line fill="none" stroke="#FFFFFF" stroke-miterlimit="10" x1="664.354" y1="402.854" x2="801.376" y2="539.88"/>
			<line fill="none" stroke="#FFFFFF" stroke-miterlimit="10" x1="670.022" y1="402.854" x2="807.046" y2="539.88"/>
			<line fill="none" stroke="#FFFFFF" stroke-miterlimit="10" x1="675.692" y1="402.854" x2="812.714" y2="539.88"/>
			<line fill="none" stroke="#FFFFFF" stroke-miterlimit="10" x1="681.362" y1="402.854" x2="818.384" y2="539.88"/>
			<line fill="none" stroke="#FFFFFF" stroke-miterlimit="10" x1="687.031" y1="402.854" x2="824.052" y2="539.88"/>
			<line fill="none" stroke="#FFFFFF" stroke-miterlimit="10" x1="692.7" y1="402.854" x2="829.722" y2="539.88"/>
			<line fill="none" stroke="#FFFFFF" stroke-miterlimit="10" x1="698.37" y1="402.854" x2="835.39" y2="539.88"/>
			<line fill="none" stroke="#FFFFFF" stroke-miterlimit="10" x1="704.039" y1="402.854" x2="841.059" y2="539.88"/>
			<line fill="none" stroke="#FFFFFF" stroke-miterlimit="10" x1="709.708" y1="402.854" x2="846.728" y2="539.88"/>
			<line fill="none" stroke="#FFFFFF" stroke-miterlimit="10" x1="715.377" y1="402.854" x2="852.396" y2="539.88"/>
		</g>
	</g>
</g>
<g id="圖層_4">
	<text transform="matrix(1 0 0 1 296.627 305.54)" fill="#FFC200" font-family="'Algerian'" font-size="31">SlapJack Game</text>
	<path fill="none" stroke="#FFFFFF" stroke-miterlimit="10" d="M568.007,273.696c-4.247,0-7.69-3.443-7.69-7.69
		c0,4.247-3.442,7.69-7.69,7.69c4.248,0,7.69,3.443,7.69,7.69C560.316,277.139,563.76,273.696,568.007,273.696z"/>
	<path fill="none" stroke="#FFFFFF" stroke-miterlimit="10" d="M286.626,273.696c-4.247,0-7.69-3.443-7.69-7.69
		c0,4.247-3.442,7.69-7.69,7.69c4.248,0,7.69,3.443,7.69,7.69C278.936,277.139,282.379,273.696,286.626,273.696z"/>
	<path fill="none" stroke="#FFFFFF" stroke-miterlimit="10" d="M286.626,316.648c-4.247,0-7.69-3.443-7.69-7.689
		c0,4.246-3.442,7.689-7.69,7.689c4.248,0,7.69,3.443,7.69,7.689C278.936,320.092,282.379,316.648,286.626,316.648z"/>
	<path fill="none" stroke="#FFFFFF" stroke-miterlimit="10" d="M568.007,316.648c-4.248,0-7.691-3.443-7.691-7.689
		c0,4.246-3.441,7.689-7.689,7.689c4.248,0,7.689,3.443,7.689,7.689C560.315,320.092,563.759,316.648,568.007,316.648z"/>
	<line fill="none" stroke="#FFFFFF" stroke-miterlimit="10" x1="286.626" y1="273.696" x2="552.626" y2="273.696"/>
	<line fill="none" stroke="#FFFFFF" stroke-miterlimit="10" x1="286.626" y1="316.648" x2="552.626" y2="316.648"/>
</g>
<g id="圖層_3" display="none">
	<path display="inline" fill="#FFFFFF" d="M804.572,691.092c6.425,1.04,11.398,8.171,11.398,16.818
		c0-8.647,4.975-15.778,11.399-16.818c-6.425-1.042-11.399-8.171-11.399-16.818C815.971,682.921,810.997,690.05,804.572,691.092z"/>
	<path display="inline" fill="none" stroke="#FFFFFF" stroke-miterlimit="10" d="M545.69,663.137c-4.247,0-7.69-3.443-7.69-7.689
		c0,4.246-3.442,7.689-7.69,7.689c4.248,0,7.69,3.443,7.69,7.69C538,666.58,541.443,663.137,545.69,663.137z"/>
	<path display="inline" fill="#FFFFFF" d="M643.289,667.137c-6.37,0-11.535-5.165-11.535-11.534c0,6.369-5.164,11.534-11.535,11.534
		c6.371,0,11.535,5.165,11.535,11.535C631.754,672.302,636.919,667.137,643.289,667.137z"/>
	<polygon display="inline" fill="none" stroke="#FFFFFF" points="383.858,-156.244 296.394,-141.798 296.397,-141.784 
		296.38,-141.786 283.276,-55.855 368.45,-68.108 	"/>
	<polygon display="inline" fill="none" stroke="#C30D23" points="-28.975,-4.344 -41.414,13.017 -41.411,13.019 -41.414,13.021 
		-29.008,29.892 -16.585,13.295 	"/>
	<polygon display="inline" fill="none" stroke="#C30D23" points="-28.975,12.664 -41.414,30.024 -41.411,30.026 -41.414,30.029 
		-29.008,46.899 -16.585,30.303 	"/>
	<polygon display="inline" fill="none" stroke="#C30D23" points="-28.975,29.671 -41.414,47.032 -41.411,47.034 -41.414,47.037 
		-29.008,63.907 -16.585,47.311 	"/>
	<polygon display="inline" fill="none" stroke="#C30D23" points="-28.975,46.679 -41.414,64.04 -41.411,64.042 -41.414,64.044 
		-29.008,80.915 -16.585,64.318 	"/>
	<polygon display="inline" fill="none" stroke="#C30D23" points="-28.975,63.687 -41.414,81.048 -41.411,81.05 -41.414,81.052 
		-29.008,97.923 -16.585,81.326 	"/>
	<polygon display="inline" fill="none" stroke="#C30D23" points="-28.975,80.695 -41.414,98.056 -41.411,98.058 -41.414,98.06 
		-29.008,114.931 -16.585,98.334 	"/>
	<polygon display="inline" fill="none" stroke="#C30D23" points="-28.975,97.703 -41.414,115.063 -41.411,115.065 -41.414,115.068 
		-29.008,131.938 -16.585,115.342 	"/>
	<polygon display="inline" fill="none" stroke="#C30D23" points="-28.975,114.71 -41.414,132.071 -41.411,132.073 -41.414,132.076 
		-29.008,148.946 -16.585,132.35 	"/>
	<polygon display="inline" fill="none" stroke="#C30D23" points="-28.975,131.718 -41.414,149.079 -41.411,149.081 -41.414,149.083 
		-29.008,165.954 -16.585,149.357 	"/>
	<polygon display="inline" fill="none" stroke="#C30D23" points="-28.975,148.726 -41.414,166.087 -41.411,166.089 -41.414,166.091 
		-29.008,182.962 -16.585,166.365 	"/>
	<polygon display="inline" fill="none" stroke="#C30D23" points="-28.975,165.734 -41.414,183.095 -41.411,183.097 -41.414,183.099 
		-29.008,199.97 -16.585,183.373 	"/>
	<polygon display="inline" fill="none" stroke="#C30D23" points="-28.975,182.742 -41.414,200.103 -41.411,200.104 -41.414,200.107 
		-29.008,216.978 -16.585,200.381 	"/>
	<polygon display="inline" fill="none" stroke="#C30D23" points="-28.975,199.75 -41.414,217.11 -41.411,217.112 -41.414,217.115 
		-29.008,233.985 -16.585,217.389 	"/>
	<polygon display="inline" fill="none" stroke="#C30D23" points="-28.975,216.757 -41.414,234.118 -41.411,234.12 -41.414,234.123 
		-29.008,250.993 -16.585,234.396 	"/>
	<polygon display="inline" fill="none" stroke="#C30D23" points="-28.975,233.765 -41.414,251.126 -41.411,251.128 -41.414,251.13 
		-29.008,268.001 -16.585,251.404 	"/>
	<polygon display="inline" fill="none" stroke="#C30D23" points="-28.975,250.773 -41.414,268.134 -41.411,268.136 -41.414,268.138 
		-29.008,285.009 -16.585,268.412 	"/>
	<polygon display="inline" fill="none" stroke="#C30D23" points="-28.975,267.781 -41.414,285.142 -41.411,285.144 -41.414,285.146 
		-29.008,302.017 -16.585,285.42 	"/>
	<polygon display="inline" fill="none" stroke="#C30D23" points="-28.975,284.789 -41.414,302.149 -41.411,302.151 -41.414,302.154 
		-29.008,319.024 -16.585,302.428 	"/>
	<polygon display="inline" fill="none" stroke="#C30D23" points="-28.975,301.797 -41.414,319.157 -41.411,319.159 -41.414,319.162 
		-29.008,336.032 -16.585,319.436 	"/>
	<polygon display="inline" fill="none" stroke="#C30D23" points="-28.975,318.805 -41.414,336.165 -41.411,336.167 -41.414,336.17 
		-29.008,353.04 -16.585,336.443 	"/>
	<polygon display="inline" fill="none" stroke="#C30D23" points="-28.975,335.813 -41.414,353.173 -41.411,353.175 -41.414,353.178 
		-29.008,370.048 -16.585,353.451 	"/>
	<polygon display="inline" fill="none" stroke="#C30D23" points="-28.975,352.82 -41.414,370.181 -41.411,370.183 -41.414,370.186 
		-29.008,387.056 -16.585,370.459 	"/>
	<polygon display="inline" fill="none" stroke="#C30D23" points="-28.975,369.828 -41.414,387.188 -41.411,387.19 -41.414,387.193 
		-29.008,404.063 -16.585,387.467 	"/>
	<polygon display="inline" fill="none" stroke="#C30D23" points="-28.975,386.836 -41.414,404.196 -41.411,404.198 -41.414,404.201 
		-29.008,421.071 -16.585,404.475 	"/>
	<polygon display="inline" fill="none" stroke="#C30D23" points="-28.975,403.844 -41.414,421.204 -41.411,421.206 -41.414,421.209 
		-29.008,438.079 -16.585,421.482 	"/>
	<polygon display="inline" fill="none" stroke="#C30D23" points="-28.975,420.852 -41.414,438.212 -41.411,438.214 -41.414,438.217 
		-29.008,455.087 -16.585,438.49 	"/>
	<polygon display="inline" fill="none" stroke="#C30D23" points="-28.975,437.859 -41.414,455.22 -41.411,455.222 -41.414,455.225 
		-29.008,472.095 -16.585,455.498 	"/>
	<polygon display="inline" fill="none" stroke="#C30D23" points="-28.975,454.867 -41.414,472.228 -41.411,472.229 -41.414,472.232 
		-29.008,489.103 -16.585,472.506 	"/>
	<polygon display="inline" fill="none" stroke="#C30D23" points="-28.975,471.875 -41.414,489.235 -41.411,489.237 -41.414,489.24 
		-29.008,506.11 -16.585,489.514 	"/>
	<polygon display="inline" fill="none" stroke="#C30D23" points="-28.975,488.883 -41.414,506.243 -41.411,506.245 -41.414,506.248 
		-29.008,523.118 -16.585,506.521 	"/>
	<polygon display="inline" fill="none" stroke="#C30D23" points="-28.975,505.891 -41.414,523.251 -41.411,523.253 -41.414,523.256 
		-29.008,540.126 -16.585,523.529 	"/>
	<polygon display="inline" fill="none" stroke="#C30D23" points="-28.975,522.898 -41.414,540.259 -41.411,540.261 -41.414,540.264 
		-29.008,557.134 -16.585,540.537 	"/>
	<polygon display="inline" fill="none" stroke="#C30D23" points="-28.975,539.906 -41.414,557.267 -41.411,557.269 -41.414,557.271 
		-29.008,574.142 -16.585,557.545 	"/>
	<polygon display="inline" fill="none" stroke="#C30D23" points="-28.975,556.914 -41.414,574.274 -41.411,574.276 -41.414,574.279 
		-29.008,591.149 -16.585,574.553 	"/>
	<polygon display="inline" fill="none" stroke="#C30D23" points="-28.975,573.922 -41.414,591.282 -41.411,591.284 -41.414,591.287 
		-29.008,608.157 -16.585,591.561 	"/>
	<polygon display="inline" fill="none" stroke="#C30D23" points="-28.975,590.93 -41.414,608.29 -41.411,608.292 -41.414,608.295 
		-29.008,625.165 -16.585,608.568 	"/>
	<polygon display="inline" fill="none" stroke="#C30D23" points="-28.975,607.938 -41.414,625.298 -41.411,625.3 -41.414,625.303 
		-29.008,642.173 -16.585,625.576 	"/>
	<polygon display="inline" fill="none" stroke="#C30D23" points="-28.975,624.945 -41.414,642.306 -41.411,642.308 -41.414,642.311 
		-29.008,659.181 -16.585,642.584 	"/>
	<polygon display="inline" fill="none" stroke="#C30D23" points="-28.975,641.953 -41.414,659.313 -41.411,659.315 -41.414,659.318 
		-29.008,676.188 -16.585,659.592 	"/>
	<g display="inline">
		<polygon fill="none" stroke="#FFFFFF" points="28.979,-77.01 60.165,-85.367 51.809,-54.18 		"/>
		<path fill="none" stroke="#FFFFFF" d="M59.988-153.181c-16.716,1.463-29.083,16.199-27.62,32.917
			c1.462,16.717,16.2,29.082,32.917,27.62l2.366-0.208l66.848-66.848L59.988-153.181z"/>
		<path fill="none" stroke="#FFFFFF" d="M67.443-90.484l0.207-2.368l66.848-66.848l-6.518,74.513
			c-1.463,16.717-16.2,29.082-32.917,27.619C78.347-59.031,65.981-73.767,67.443-90.484z"/>
	</g>
	<g display="inline">
		<line fill="none" stroke="#FFFFFF" x1="737.435" y1="679.137" x2="761.102" y2="679.137"/>
		<line fill="none" stroke="#FFFFFF" x1="749.268" y1="690.971" x2="749.268" y2="667.304"/>
		<line fill="none" stroke="#FFFFFF" x1="741.737" y1="686.668" x2="756.799" y2="671.606"/>
		<line fill="none" stroke="#FFFFFF" x1="756.799" y1="686.668" x2="741.737" y2="671.606"/>
	</g>
	<g display="inline">
		<line fill="none" stroke="#FFFFFF" x1="125.239" y1="664.927" x2="141.489" y2="664.927"/>
		<line fill="none" stroke="#FFFFFF" x1="133.364" y1="677.853" x2="133.364" y2="652"/>
	</g>
	<g display="inline">
		<line fill="none" stroke="#FFFFFF" x1="247.863" y1="674.273" x2="270.137" y2="652"/>
		<line fill="none" stroke="#FFFFFF" x1="270.137" y1="674.273" x2="247.863" y2="652"/>
	</g>
	<circle display="inline" fill="none" stroke="#FFFFFF" cx="381.204" cy="665.341" r="4.136"/>
	<circle display="inline" fill="#FFFFFF" cx="460.461" cy="671.137" r="8"/>
	
		<rect x="316.333" y="632.997" transform="matrix(0.7071 -0.7071 0.7071 0.7071 -357.43 415.0818)" display="inline" fill="#FFFFFF" width="12" height="12"/>
	<polygon display="inline" fill="none" stroke="#FFFFFF" points="683.623,663.653 683.623,678.62 683.624,678.62 698.592,663.653 	
		"/>
	<g display="inline">
		<defs>
			<path id="SVGID_9_" d="M1013.74,309.191c0,13.469-10.917,24.387-24.387,24.387c-13.469,0-24.386-10.918-24.386-24.387
				s10.917-24.387,24.386-24.387C1002.823,284.805,1013.74,295.723,1013.74,309.191z M989.354,232.857
				c-42.158,0-76.334,34.176-76.334,76.334s34.176,76.334,76.334,76.334c42.159,0,76.335-34.176,76.335-76.334
				S1031.513,232.857,989.354,232.857z"/>
		</defs>
		<clipPath id="SVGID_10_">
			<use xlink:href="#SVGID_9_"  overflow="visible"/>
		</clipPath>
		<g clip-path="url(#SVGID_10_)">
			<rect x="913.021" y="308.692" fill="#FFFFFF" width="152.667" height="1"/>
		</g>
		<g clip-path="url(#SVGID_10_)">
			
				<rect x="988.855" y="232.859" transform="matrix(0.207 0.9783 -0.9783 0.207 1087.0598 -722.7365)" fill="#FFFFFF" width="1" height="152.667"/>
		</g>
		<g clip-path="url(#SVGID_10_)">
			
				<rect x="988.856" y="232.858" transform="matrix(0.4069 0.9135 -0.9135 0.4069 869.2645 -720.3721)" fill="#FFFFFF" width="0.998" height="152.667"/>
		</g>
		<g clip-path="url(#SVGID_10_)">
			
				<rect x="988.855" y="232.859" transform="matrix(0.5881 0.8088 -0.8088 0.5881 657.6398 -672.8404)" fill="#FFFFFF" width="1" height="152.667"/>
		</g>
		<g clip-path="url(#SVGID_10_)">
			
				<rect x="988.855" y="232.858" transform="matrix(0.7433 0.669 -0.669 0.7433 460.811 -582.4721)" fill="#FFFFFF" width="0.999" height="152.667"/>
		</g>
		<g clip-path="url(#SVGID_10_)">
			
				<rect x="988.855" y="232.858" transform="matrix(0.8658 0.5003 -0.5003 0.8658 287.446 -453.5313)" fill="#FFFFFF" width="0.999" height="152.668"/>
		</g>
		<g clip-path="url(#SVGID_10_)">
			
				<rect x="988.855" y="232.858" transform="matrix(0.9512 0.3086 -0.3086 0.9512 143.7052 -290.2241)" fill="#FFFFFF" width="1" height="152.667"/>
		</g>
		<g clip-path="url(#SVGID_10_)">
			
				<rect x="988.855" y="232.858" transform="matrix(0.9945 0.1045 -0.1045 0.9945 37.7407 -101.7255)" fill="#FFFFFF" width="1" height="152.667"/>
		</g>
		<g clip-path="url(#SVGID_10_)">
			
				<rect x="913.02" y="308.692" transform="matrix(0.1045 0.9945 -0.9945 0.1045 1193.4495 -707.0594)" fill="#FFFFFF" width="152.667" height="1"/>
		</g>
		<g clip-path="url(#SVGID_10_)">
			
				<rect x="913.02" y="308.691" transform="matrix(0.309 0.9511 -0.9511 0.309 977.6991 -727.2859)" fill="#FFFFFF" width="152.667" height="1"/>
		</g>
		<g clip-path="url(#SVGID_10_)">
			
				<rect x="913.02" y="308.692" transform="matrix(0.5 0.866 -0.866 0.5 762.4519 -702.2117)" fill="#FFFFFF" width="152.668" height="0.999"/>
		</g>
		<g clip-path="url(#SVGID_10_)">
			
				<rect x="913.02" y="308.692" transform="matrix(0.6691 0.7432 -0.7432 0.6691 557.1328 -632.9366)" fill="#FFFFFF" width="152.668" height="0.999"/>
		</g>
		<g clip-path="url(#SVGID_10_)">
			
				<rect x="913.02" y="308.692" transform="matrix(0.809 0.5878 -0.5878 0.809 370.6948 -522.4822)" fill="#FFFFFF" width="152.669" height="1"/>
		</g>
		<g clip-path="url(#SVGID_10_)">
			
				<rect x="913.02" y="308.692" transform="matrix(0.9135 0.4067 -0.4067 0.9135 211.3008 -375.6835)" fill="#FFFFFF" width="152.668" height="0.999"/>
		</g>
		<g clip-path="url(#SVGID_10_)">
			
				<rect x="913.021" y="308.692" transform="matrix(0.9781 0.2079 -0.2079 0.9781 85.9096 -198.951)" fill="#FFFFFF" width="152.667" height="1"/>
		</g>
	</g>
	<g display="inline">
		<path fill="none" stroke="#FFFFFF" d="M224.433-149.314c15.88,1.389,27.628,15.388,26.238,31.27
			c-1.389,15.88-15.389,27.627-31.27,26.239l-2.247-0.197l-63.503-63.503L224.433-149.314z"/>
		<path fill="none" stroke="#FFFFFF" d="M217.35-89.754l-0.196-2.249l-63.503-63.503l6.191,70.784
			c1.391,15.88,15.39,27.627,31.27,26.237C206.992-59.874,218.74-73.874,217.35-89.754z"/>
	</g>
	<g display="inline">
		<circle fill="none" stroke="#FFFFFF" cx="466.844" cy="-78.819" r="29.011"/>
		<circle fill="none" stroke="#FFFFFF" cx="508.099" cy="-120.074" r="29.01"/>
		<circle fill="none" stroke="#FFFFFF" cx="451.628" cy="-135.061" r="29.01"/>
		<polygon fill="none" stroke="#FFFFFF" points="509.008,-57.281 501.458,-85.459 529.636,-77.908 		"/>
	</g>
</g>
</svg>
