<?xml version="1.0" encoding="utf-8"?>
<!-- Generator: Adobe Illustrator 16.0.0, SVG Export Plug-In . SVG Version: 6.00 Build 0)  -->
<!DOCTYPE svg PUBLIC "-//W3C//DTD SVG 1.1//EN" "http://www.w3.org/Graphics/SVG/1.1/DTD/svg11.dtd">
<svg version="1.1" xmlns="http://www.w3.org/2000/svg" xmlns:xlink="http://www.w3.org/1999/xlink" x="0px" y="0px"
	 width="841.89px" height="474.43px" viewBox="0 0 841.89 474.43" enable-background="new 0 0 841.89 474.43" xml:space="preserve">
<g id="圖層_2">
	<rect fill="#051E0F" width="841.499" height="474.43"/>
</g>
<g id="圖層_1">
	<g opacity="0.7">
		<defs>
			<polygon id="SVGID_1_" opacity="0.7" points="752.574,71.245 682.888,82.89 682.892,82.902 682.878,82.9 672.564,151.405 
				740.429,141.511 			"/>
		</defs>
		<clipPath id="SVGID_2_">
			<use xlink:href="#SVGID_1_"  overflow="visible"/>
		</clipPath>
		<g clip-path="url(#SVGID_2_)">
			<line fill="none" stroke="#FFFFFF" stroke-miterlimit="10" x1="608.27" y1="156.59" x2="717.472" y2="47.383"/>
			<line fill="none" stroke="#FFFFFF" stroke-miterlimit="10" x1="612.787" y1="156.59" x2="721.99" y2="47.383"/>
			<line fill="none" stroke="#FFFFFF" stroke-miterlimit="10" x1="617.306" y1="156.59" x2="726.508" y2="47.383"/>
			<line fill="none" stroke="#FFFFFF" stroke-miterlimit="10" x1="621.823" y1="156.59" x2="731.026" y2="47.383"/>
			<line fill="none" stroke="#FFFFFF" stroke-miterlimit="10" x1="626.342" y1="156.59" x2="735.544" y2="47.383"/>
			<line fill="none" stroke="#FFFFFF" stroke-miterlimit="10" x1="630.859" y1="156.59" x2="740.063" y2="47.383"/>
			<line fill="none" stroke="#FFFFFF" stroke-miterlimit="10" x1="635.378" y1="156.59" x2="744.58" y2="47.383"/>
			<line fill="none" stroke="#FFFFFF" stroke-miterlimit="10" x1="639.896" y1="156.59" x2="749.099" y2="47.383"/>
			<line fill="none" stroke="#FFFFFF" stroke-miterlimit="10" x1="644.414" y1="156.59" x2="753.616" y2="47.383"/>
			<line fill="none" stroke="#FFFFFF" stroke-miterlimit="10" x1="648.932" y1="156.59" x2="758.135" y2="47.383"/>
			<line fill="none" stroke="#FFFFFF" stroke-miterlimit="10" x1="653.45" y1="156.59" x2="762.652" y2="47.383"/>
			<line fill="none" stroke="#FFFFFF" stroke-miterlimit="10" x1="657.968" y1="156.59" x2="767.171" y2="47.383"/>
			<line fill="none" stroke="#FFFFFF" stroke-miterlimit="10" x1="662.486" y1="156.59" x2="771.688" y2="47.383"/>
			<line fill="none" stroke="#FFFFFF" stroke-miterlimit="10" x1="667.004" y1="156.59" x2="776.207" y2="47.383"/>
			<line fill="none" stroke="#FFFFFF" stroke-miterlimit="10" x1="671.522" y1="156.59" x2="780.725" y2="47.383"/>
			<line fill="none" stroke="#FFFFFF" stroke-miterlimit="10" x1="676.04" y1="156.59" x2="785.243" y2="47.383"/>
			<line fill="none" stroke="#FFFFFF" stroke-miterlimit="10" x1="680.559" y1="156.59" x2="789.761" y2="47.383"/>
			<line fill="none" stroke="#FFFFFF" stroke-miterlimit="10" x1="685.076" y1="156.59" x2="794.279" y2="47.383"/>
			<line fill="none" stroke="#FFFFFF" stroke-miterlimit="10" x1="689.595" y1="156.59" x2="798.797" y2="47.383"/>
			<line fill="none" stroke="#FFFFFF" stroke-miterlimit="10" x1="694.112" y1="156.59" x2="803.315" y2="47.383"/>
			<line fill="none" stroke="#FFFFFF" stroke-miterlimit="10" x1="698.631" y1="156.59" x2="807.833" y2="47.383"/>
			<line fill="none" stroke="#FFFFFF" stroke-miterlimit="10" x1="703.148" y1="156.59" x2="812.352" y2="47.383"/>
			<line fill="none" stroke="#FFFFFF" stroke-miterlimit="10" x1="707.667" y1="156.59" x2="816.869" y2="47.383"/>
			<line fill="none" stroke="#FFFFFF" stroke-miterlimit="10" x1="712.185" y1="156.59" x2="821.388" y2="47.383"/>
			<line fill="none" stroke="#FFFFFF" stroke-miterlimit="10" x1="716.703" y1="156.59" x2="825.905" y2="47.383"/>
			<line fill="none" stroke="#FFFFFF" stroke-miterlimit="10" x1="721.221" y1="156.59" x2="830.424" y2="47.383"/>
			<line fill="none" stroke="#FFFFFF" stroke-miterlimit="10" x1="725.739" y1="156.59" x2="834.941" y2="47.383"/>
			<line fill="none" stroke="#FFFFFF" stroke-miterlimit="10" x1="730.257" y1="156.59" x2="839.46" y2="47.383"/>
		</g>
	</g>
	<g opacity="0.7">
		<defs>
			<path id="SVGID_3_" opacity="0.7" d="M74.575,391.338l24.855-6.659l-6.66,24.854L74.575,391.338z M99.29,330.629
				c-13.326,1.172-23.176,12.911-22.013,26.236c1.164,13.326,12.911,23.177,26.229,22.013l1.889-0.167l-0.167,1.889
				c-1.164,13.326,8.695,25.065,22.013,26.237c13.326,1.163,25.073-8.695,26.237-22.013l5.197-59.392L99.29,330.629z"/>
		</defs>
		<clipPath id="SVGID_4_">
			<use xlink:href="#SVGID_3_"  overflow="visible"/>
		</clipPath>
		<g clip-path="url(#SVGID_4_)">
			<line fill="none" stroke="#FFFFFF" stroke-miterlimit="10" x1="8.147" y1="410.779" x2="117.35" y2="301.57"/>
			<line fill="none" stroke="#FFFFFF" stroke-miterlimit="10" x1="12.665" y1="410.779" x2="121.868" y2="301.57"/>
			<line fill="none" stroke="#FFFFFF" stroke-miterlimit="10" x1="17.183" y1="410.779" x2="126.386" y2="301.57"/>
			<line fill="none" stroke="#FFFFFF" stroke-miterlimit="10" x1="21.701" y1="410.779" x2="130.904" y2="301.57"/>
			<line fill="none" stroke="#FFFFFF" stroke-miterlimit="10" x1="26.219" y1="410.779" x2="135.422" y2="301.57"/>
			<line fill="none" stroke="#FFFFFF" stroke-miterlimit="10" x1="30.737" y1="410.779" x2="139.94" y2="301.57"/>
			<line fill="none" stroke="#FFFFFF" stroke-miterlimit="10" x1="35.255" y1="410.779" x2="144.458" y2="301.57"/>
			<line fill="none" stroke="#FFFFFF" stroke-miterlimit="10" x1="39.773" y1="410.779" x2="148.976" y2="301.57"/>
			<line fill="none" stroke="#FFFFFF" stroke-miterlimit="10" x1="44.292" y1="410.779" x2="153.494" y2="301.57"/>
			<line fill="none" stroke="#FFFFFF" stroke-miterlimit="10" x1="48.81" y1="410.779" x2="158.012" y2="301.57"/>
			<line fill="none" stroke="#FFFFFF" stroke-miterlimit="10" x1="53.328" y1="410.779" x2="162.53" y2="301.57"/>
			<line fill="none" stroke="#FFFFFF" stroke-miterlimit="10" x1="57.846" y1="410.779" x2="167.048" y2="301.57"/>
			<line fill="none" stroke="#FFFFFF" stroke-miterlimit="10" x1="62.364" y1="410.779" x2="171.566" y2="301.57"/>
			<line fill="none" stroke="#FFFFFF" stroke-miterlimit="10" x1="66.882" y1="410.779" x2="176.084" y2="301.57"/>
			<line fill="none" stroke="#FFFFFF" stroke-miterlimit="10" x1="71.4" y1="410.779" x2="180.603" y2="301.57"/>
			<line fill="none" stroke="#FFFFFF" stroke-miterlimit="10" x1="75.918" y1="410.779" x2="185.121" y2="301.57"/>
			<line fill="none" stroke="#FFFFFF" stroke-miterlimit="10" x1="80.436" y1="410.779" x2="189.639" y2="301.57"/>
			<line fill="none" stroke="#FFFFFF" stroke-miterlimit="10" x1="84.954" y1="410.779" x2="194.157" y2="301.57"/>
			<line fill="none" stroke="#FFFFFF" stroke-miterlimit="10" x1="89.472" y1="410.779" x2="198.675" y2="301.57"/>
			<line fill="none" stroke="#FFFFFF" stroke-miterlimit="10" x1="93.99" y1="410.779" x2="203.193" y2="301.57"/>
			<line fill="none" stroke="#FFFFFF" stroke-miterlimit="10" x1="98.508" y1="410.779" x2="207.711" y2="301.57"/>
			<line fill="none" stroke="#FFFFFF" stroke-miterlimit="10" x1="103.026" y1="410.779" x2="212.229" y2="301.57"/>
			<line fill="none" stroke="#FFFFFF" stroke-miterlimit="10" x1="107.544" y1="410.779" x2="216.747" y2="301.57"/>
			<line fill="none" stroke="#FFFFFF" stroke-miterlimit="10" x1="112.063" y1="410.779" x2="221.265" y2="301.57"/>
			<line fill="none" stroke="#FFFFFF" stroke-miterlimit="10" x1="116.581" y1="410.779" x2="225.783" y2="301.57"/>
			<line fill="none" stroke="#FFFFFF" stroke-miterlimit="10" x1="121.099" y1="410.779" x2="230.301" y2="301.57"/>
			<line fill="none" stroke="#FFFFFF" stroke-miterlimit="10" x1="125.617" y1="410.779" x2="234.819" y2="301.57"/>
			<line fill="none" stroke="#FFFFFF" stroke-miterlimit="10" x1="130.135" y1="410.779" x2="239.337" y2="301.57"/>
			<line fill="none" stroke="#FFFFFF" stroke-miterlimit="10" x1="134.653" y1="410.779" x2="243.855" y2="301.57"/>
		</g>
	</g>
	<path fill="none" stroke="#727272" stroke-miterlimit="10" d="M599.548,404.166c-3.385,0-6.129-2.744-6.129-6.128
		c0,3.384-2.743,6.128-6.129,6.128c3.386,0,6.129,2.744,6.129,6.13C593.419,406.91,596.163,404.166,599.548,404.166z"/>
	<path fill="none" stroke="#727272" stroke-miterlimit="10" d="M132.185,294.821c-3.385,0-6.129-2.744-6.129-6.128
		c0,3.384-2.744,6.128-6.129,6.128c3.385,0,6.129,2.744,6.129,6.13C126.056,297.565,128.8,294.821,132.185,294.821z"/>
	<path fill="none" stroke="#727272" stroke-miterlimit="10" d="M185.168,125.959c-3.385,0-6.129-2.745-6.129-6.128
		c0,3.384-2.744,6.128-6.129,6.128c3.386,0,6.129,2.744,6.129,6.129C179.039,128.703,181.783,125.959,185.168,125.959z"/>
	<path fill="none" stroke="#FFFFFF" stroke-miterlimit="10" d="M657.306,83.332c-3.385,0-6.129-2.744-6.129-6.128
		c0,3.384-2.743,6.128-6.129,6.128c3.386,0,6.129,2.744,6.129,6.129C651.177,86.076,653.921,83.332,657.306,83.332z"/>
	<path fill="none" stroke="#FFFFFF" stroke-miterlimit="10" d="M538.151,218.132c-3.385,0-6.129-2.744-6.129-6.129
		c0,3.385-2.744,6.129-6.13,6.129c3.386,0,6.13,2.744,6.13,6.129C532.022,220.876,534.767,218.132,538.151,218.132z"/>
	<path fill="none" stroke="#FFFFFF" stroke-miterlimit="10" d="M538.151,252.364c-3.386,0-6.13-2.744-6.13-6.128
		c0,3.384-2.743,6.128-6.129,6.128c3.386,0,6.129,2.744,6.129,6.128C532.021,255.108,534.766,252.364,538.151,252.364z"/>
	<path fill="none" stroke="#727272" d="M823,393.001V81.429c-35.433,0-64.157-28.724-64.157-64.157H81.249
		c0,35.433-28.724,64.157-64.157,64.157v311.572c35.433,0,64.157,28.725,64.157,64.157h677.594
		C758.843,421.726,787.567,393.001,823,393.001z"/>
	<g>
		<line fill="none" stroke="#727272" x1="752.574" y1="176.794" x2="771.437" y2="176.794"/>
		<line fill="none" stroke="#727272" x1="762.005" y1="186.226" x2="762.005" y2="167.363"/>
		<line fill="none" stroke="#727272" x1="756.004" y1="182.796" x2="768.007" y2="170.792"/>
		<line fill="none" stroke="#727272" x1="768.007" y1="182.796" x2="756.004" y2="170.792"/>
	</g>
	<g>
		<line fill="none" stroke="#727272" x1="635.744" y1="170.869" x2="654.606" y2="170.869"/>
		<line fill="none" stroke="#727272" x1="645.175" y1="180.301" x2="645.175" y2="161.438"/>
		<line fill="none" stroke="#727272" x1="639.173" y1="176.872" x2="651.177" y2="164.868"/>
		<line fill="none" stroke="#727272" x1="651.177" y1="176.872" x2="639.173" y2="164.868"/>
	</g>
	<g>
		<line fill="none" stroke="#727272" x1="729.181" y1="300.824" x2="748.043" y2="300.824"/>
		<line fill="none" stroke="#727272" x1="738.611" y1="310.256" x2="738.611" y2="291.394"/>
		<line fill="none" stroke="#727272" x1="732.609" y1="306.826" x2="744.613" y2="294.823"/>
		<line fill="none" stroke="#727272" x1="744.613" y1="306.826" x2="732.609" y2="294.823"/>
	</g>
	<g>
		<line fill="none" stroke="#727272" x1="107.193" y1="188.116" x2="126.056" y2="188.116"/>
		<line fill="none" stroke="#727272" x1="116.625" y1="197.548" x2="116.625" y2="178.686"/>
		<line fill="none" stroke="#727272" x1="110.623" y1="194.119" x2="122.626" y2="182.115"/>
		<line fill="none" stroke="#727272" x1="122.626" y1="194.119" x2="110.623" y2="182.115"/>
	</g>
	<g>
		<line fill="none" stroke="#727272" x1="163.015" y1="252.363" x2="181.877" y2="252.363"/>
		<line fill="none" stroke="#727272" x1="172.446" y1="261.795" x2="172.446" y2="242.933"/>
		<line fill="none" stroke="#727272" x1="166.444" y1="258.366" x2="178.448" y2="246.363"/>
		<line fill="none" stroke="#727272" x1="178.448" y1="258.366" x2="166.444" y2="246.363"/>
	</g>
	<g>
		<line fill="none" stroke="#FFFFFF" x1="260.934" y1="397.228" x2="279.796" y2="397.228"/>
		<line fill="none" stroke="#FFFFFF" x1="270.364" y1="406.659" x2="270.364" y2="387.797"/>
		<line fill="none" stroke="#FFFFFF" x1="264.363" y1="403.229" x2="276.367" y2="391.227"/>
		<line fill="none" stroke="#FFFFFF" x1="276.367" y1="403.229" x2="264.363" y2="391.227"/>
	</g>
	<g>
		<line fill="none" stroke="#727272" x1="199.943" y1="416.744" x2="212.895" y2="416.744"/>
		<line fill="none" stroke="#727272" x1="206.419" y1="427.046" x2="206.419" y2="406.441"/>
	</g>
	<g>
		<line fill="none" stroke="#FFFFFF" x1="186.992" y1="183.266" x2="199.943" y2="183.266"/>
		<line fill="none" stroke="#FFFFFF" x1="193.468" y1="193.567" x2="193.468" y2="172.963"/>
	</g>
	<g>
		<line fill="none" stroke="#727272" x1="681.742" y1="246.363" x2="694.693" y2="246.363"/>
		<line fill="none" stroke="#727272" x1="688.218" y1="256.665" x2="688.218" y2="236.061"/>
	</g>
	<g>
		<line fill="none" stroke="#727272" x1="629.269" y1="345.672" x2="642.22" y2="345.672"/>
		<line fill="none" stroke="#727272" x1="635.744" y1="355.974" x2="635.744" y2="335.369"/>
	</g>
	<circle fill="none" stroke="#727272" cx="216.191" cy="345.672" r="3.296"/>
	<circle fill="none" stroke="#727272" cx="66.448" cy="240.361" r="3.296"/>
	<circle fill="none" stroke="#727272" cx="229.321" cy="64.082" r="3.296"/>
	<circle fill="none" stroke="#727272" cx="580.957" cy="102.792" r="3.296"/>
	<circle fill="none" stroke="#727272" cx="763.478" cy="242.934" r="3.296"/>
	<circle fill="none" stroke="#FFFFFF" cx="657.902" cy="381.063" r="3.296"/>
	<g>
		<path fill="none" stroke="#727272" stroke-miterlimit="10" d="M420.945,278.878c14.089,0,25.512-11.422,25.512-25.511h-51.023
			C395.434,267.456,406.855,278.878,420.945,278.878z"/>
		<path fill="none" stroke="#727272" stroke-miterlimit="10" d="M420.944,192.62c-14.09,0-25.512,11.422-25.512,25.512h51.023
			C446.456,204.042,435.033,192.62,420.944,192.62z"/>
		<g>
			<path fill="#727272" d="M436.663,404.191l-1.5-15.869l0.64-0.062c0.066-0.007,0.134-0.013,0.2-0.02l1.361,15.883l-0.616-7.194
				l0.76,7.18L436.663,404.191z M372.331,397.773l-0.769-0.235l4.695-15.232l0.718,0.22L372.331,397.773z M499.381,385.507
				l-7.493-14.069l0.661-0.353l7.531,14.049L499.381,385.507z M314.639,366.935L314,366.408l10.179-12.266l0.558,0.459
				L314.639,366.935z M550.08,344.227l-12.257-10.189l0.459-0.557l12.324,10.109L550.08,344.227z M273.065,316.423l-0.383-0.719
				l14.089-7.454l0.343,0.642L273.065,316.423z M581.243,286.675l-15.232-4.694l0.221-0.721l15.246,4.651L581.243,286.675z
				 M254.056,253.831l-0.078-0.802l15.866-1.525l0.072,0.741L254.056,253.831z M572.06,223.073l-0.104-1.063l15.862-1.569
				l0.112,1.141L572.06,223.073z M275.614,193.314l-15.255-4.622l0.238-0.782l15.231,4.701L275.614,193.314z M555.048,166.047
				l-0.352-0.657l14.049-7.531l0.376,0.704L555.048,166.047z M303.505,141.071l-12.333-10.098l0.52-0.631l12.278,10.164
				L303.505,141.071z M517.589,120.188l-0.56-0.46l10.086-12.343l0.636,0.523L517.589,120.188z M349.194,103.423l-7.531-14.048
				l0.704-0.376l7.483,14.074L349.194,103.423z M465.473,92.075l-0.693-0.211l4.594-15.263l0.794,0.242L465.473,92.075z
				 M405.825,86.195l-1.571-15.862l0.777-0.077l1.559,15.863L405.825,86.195z"/>
		</g>
		<g>
			<path fill="#727272" d="M404.546,404.167l-0.797-0.081l1.629-15.855l0.749,0.075L404.546,404.167z M468.902,397.927
				l-4.561-15.273l0.833-0.251l4.379,15.327l-2.175-7.61l2.57,7.484L468.902,397.927z M341.946,385.159l-0.724-0.39l7.585-14.019
				l0.641,0.344L341.946,385.159z M526.748,367.397l-10.027-12.391l0.545-0.445l10.133,12.306L526.748,367.397z M291.325,343.71
				l-0.525-0.644l12.378-10.042l0.452,0.552L291.325,343.71z M568.474,316.981l-14.019-7.585l0.347-0.645l14.059,7.511
				L568.474,316.981z M260.469,285.958l-0.223-0.742l15.276-4.55l0.224,0.745L260.469,285.958z M587.813,254.438l-15.86-1.582
				l0.078-0.773l15.86,1.582L587.813,254.438z M269.849,222.437l-15.863-1.558l0.082-0.809l15.856,1.629L269.849,222.437z
				 M566.396,193.864l-0.259-0.861l15.227-4.713l0.308,1.018L566.396,193.864z M287.041,165.764l-14.065-7.501l0.385-0.715
				l14.028,7.567L287.041,165.764z M538.661,141.344l-0.468-0.57l12.305-10.133l0.51,0.623L538.661,141.344z M324.543,119.933
				l-10.133-12.304l0.637-0.521l10.054,12.369L324.543,119.933z M493,103.635l-0.645-0.346l7.491-14.069l0.721,0.386L493,103.635z
				 M376.728,92.024l-4.603-15.261l0.768-0.232l4.553,15.276l-0.555,0.167v0L376.728,92.024z M436.409,86.188l-0.738-0.074
				l1.559-15.863l0.808,0.081L436.409,86.188z"/>
		</g>
		<g>
			<path fill="#727272" d="M421.394,428.839l-1.248-0.002l0.182-53.784l-0.28-9.96c0.104-0.003,0.21-0.006,0.314-0.007v-0.008
				l0.476,0.002c0.063-0.001,0.127-0.001,0.19-0.001v32.027l0.814,31.72L421.394,428.839z M493.482,414.625l-24.111-59.024
				l0.515-0.212l24.509,58.86L493.482,414.625z M347.725,414.344l-0.897-0.374l24.7-58.78l0.536,0.224L347.725,414.344z
				 M555.773,373.379l-44.795-45.372l0.404-0.401l45.084,45.084L555.773,373.379z M285.554,372.82l-0.667-0.669l45.276-44.893
				l0.427,0.429L285.554,372.82z M597.667,311.409l-58.78-24.698l0.217-0.521l58.944,24.305L597.667,311.409z M243.926,310.7
				l-0.328-0.794l58.963-24.262l0.26,0.63L243.926,310.7z M612.566,238.086l-63.759-0.192l0.002-1.013h63.759L612.566,238.086z
				 M293.08,237.382h-63.759l0.001-0.897l63.759,0.245L293.08,237.382z M539.275,188.656l-0.247-0.596l58.846-24.543l0.344,0.829
				L539.275,188.656z M302.715,188.411l-58.931-24.339l0.356-0.857l58.814,24.618L302.715,188.411z M511.655,147.099l-0.45-0.451
				l44.987-45.181l0.644,0.644L511.655,147.099z M330.412,146.918l-45.133-45.036l0.645-0.643l44.94,45.228L330.412,146.918z
				 M470.25,119.193l-0.561-0.233l24.305-58.944l0.874,0.363L470.25,119.193z M371.866,119.099l-24.543-58.846l0.87-0.36
				l24.228,58.976L371.866,119.099z M421.397,109.351l-0.453-0.001l-0.25,0V45.591l0.846,0L421.397,109.351z"/>
		</g>
		<g>
			<path fill="#FFFFFF" d="M454.459,409.673l-6.091-31.292l0.839-0.165l2.483,13.409l3.823,17.837l-0.309,0.063l0.001,0.002
				L454.459,409.673z M386.729,409.577l-0.813-0.163l6.326-31.246l0.711,0.144L386.729,409.577z M517.883,383.784l-17.55-26.613
				l0.531-0.354l17.771,26.466L517.883,383.784z M323.422,383.345l-0.71-0.476l17.816-26.437l0.576,0.388L323.422,383.345z
				 M566.546,335.524l-26.406-17.86l0.373-0.554l26.524,17.683L566.546,335.524z M274.913,334.962l-0.49-0.736l26.592-17.583
				l0.364,0.548L274.913,334.962z M593.13,272.307l-31.246-6.326l0.145-0.715l31.265,6.234L593.13,272.307z M248.654,271.583
				l-0.15-0.763l31.282-6.141l0.149,0.76L248.654,271.583z M562.12,209.84l-0.176-0.889l31.245-6.332l0.229,1.163L562.12,209.84z
				 M279.834,209.291l-31.266-6.224l0.168-0.836l31.236,6.372L279.834,209.291z M540.824,157.713l-0.398-0.598l26.481-17.75
				l0.458,0.686L540.824,157.713z M301.302,157.432l-26.525-17.684l0.486-0.726l26.414,17.85L301.302,157.432z M501.26,117.928
				l-0.589-0.394l17.684-26.525l0.698,0.468L501.26,117.928z M340.901,117.695l-17.75-26.481l0.72-0.479l17.595,26.584
				L340.901,117.695z M449.49,96.23l-0.67-0.135l6.188-31.273l0.854,0.171L449.49,96.23z M392.708,96.21l-6.252-31.261l0.866-0.171
				l6.04,31.302L392.708,96.21z"/>
		</g>
		<g>
			<path fill="#FFC200" d="M333.688,227.177c-0.419,0.563-0.753,1.15-1.002,1.761c-0.49,1.207-0.816,1.946-0.977,2.22l-0.061,0.072
				c-0.032-0.088-0.057-0.157-0.072-0.205c-0.226-0.724-0.41-1.226-0.555-1.508c-0.146-0.281-0.362-0.551-0.652-0.808
				c-0.731-0.652-1.564-0.978-2.497-0.978c-0.86,0-1.576,0.239-2.147,0.718s-0.856,1.08-0.856,1.804
				c0,1.351,1.018,2.272,3.053,2.763l2.038,0.495c2.903,0.7,4.355,2.231,4.355,4.596c0,1.319-0.497,2.427-1.489,3.323
				c-0.994,0.897-2.223,1.346-3.687,1.346c-0.916,0-1.941-0.141-3.076-0.422l-1.411-0.35c-0.571-0.137-1.042-0.206-1.411-0.206
				c-0.491,0-0.998,0.157-1.521,0.47l-0.097-0.168c0.997-1.504,1.697-2.936,2.1-4.295l0.217,0.061
				c0.169,1.263,0.676,2.244,1.521,2.943c0.844,0.7,1.949,1.05,3.317,1.05c1.077,0,1.934-0.249,2.569-0.749
				c0.635-0.498,0.953-1.17,0.953-2.014c0-0.973-0.442-1.777-1.327-2.413c-0.636-0.45-1.938-0.868-3.908-1.254
				c-1.521-0.297-2.622-0.792-3.306-1.484c-0.684-0.691-1.025-1.653-1.025-2.883c0-1.271,0.456-2.302,1.369-3.094
				s2.101-1.188,3.564-1.188c0.941,0,2.039,0.169,3.294,0.507c0.587,0.161,1.021,0.241,1.303,0.241c0.394,0,0.824-0.137,1.291-0.41
				L333.688,227.177z M333.688,234.874c1.093,0.828,1.641,1.962,1.641,3.402c0,1.536-0.596,2.837-1.786,3.902
				c-1.19,1.066-2.638,1.599-4.343,1.599c-0.868,0-1.652-0.089-2.353-0.266l-1.93-0.471c-0.451-0.112-0.934-0.168-1.448-0.168
				c-0.458,0-0.88,0.092-1.267,0.277l-0.145-0.35c0.418-0.193,0.845-0.29,1.278-0.29c0.483,0,1.033,0.073,1.653,0.218l1.857,0.446
				c0.74,0.176,1.521,0.265,2.341,0.265c1.608,0,2.978-0.513,4.107-1.538s1.695-2.266,1.695-3.722c0-1.23-0.435-2.308-1.303-3.233
				V234.874z M323.591,234.439l0.41,0.229c0.266,0.475,1.041,0.868,2.328,1.182l1.942,0.482c1.318,0.33,2.197,0.613,2.636,0.85
				c0.438,0.238,0.75,0.598,0.936,1.08l-0.085,0.048c-0.362-0.417-0.754-0.723-1.176-0.917c-0.423-0.193-1.233-0.43-2.432-0.712
				c-1.736-0.402-2.903-0.75-3.498-1.043C324.057,235.346,323.703,234.946,323.591,234.439z M325.099,238.348
				c0.297,1.448,1.094,2.473,2.389,3.077v0.097c-1.496-0.435-2.4-1.473-2.714-3.113L325.099,238.348z M330.913,230.084
				c-0.885-0.941-1.833-1.412-2.847-1.412c-0.611,0-1.118,0.177-1.521,0.531c-0.402,0.354-0.603,0.805-0.603,1.352
				c0,0.595,0.405,1.206,1.218,1.833l0.097,0.06l-0.06,0.097c-1.063-0.474-1.593-1.162-1.593-2.063c0-0.627,0.225-1.138,0.676-1.532
				c0.45-0.394,1.037-0.591,1.761-0.591c0.691,0,1.297,0.146,1.816,0.44c0.518,0.293,0.898,0.706,1.14,1.236L330.913,230.084z
				 M334.436,227.683l-0.108,0.181c-0.33,0.555-0.611,1.086-0.844,1.592c-0.563,1.183-0.881,1.842-0.953,1.979l-0.061,0.084
				l-0.29-0.121l0.049-0.108c0.233-0.531,0.57-1.223,1.014-2.075l0.82-1.592l0.06-0.097L334.436,227.683z"/>
			<path fill="#FFC200" d="M336.064,227.044h5.767l-1.701,1.653v12.896h0.097l0.435,0.037h0.108v-12.812l1.303-1.315l0.169,0.265
				l-1.17,1.194v12.667c0.361,0.032,0.707,0.048,1.037,0.048c1.279,0,2.246-0.283,2.901-0.851c0.655-0.567,1.096-1.502,1.321-2.805
				c0.756,2.196,1.532,3.696,2.328,4.5h-12.595l1.665-1.363v-12.582L336.064,227.044z M349.842,242.425l-0.543,1.085h-12.595
				l-0.302-0.326h12.764l0.35-0.76c-0.885-1.086-1.593-2.296-2.123-3.632l-0.049-0.132l0.387,0.145l0.084,0.206
				c0.539,1.19,1.183,2.288,1.931,3.293L349.842,242.425z"/>
			<path fill="#FFC200" d="M360.759,227.044l-1.254,1.423l1.979,5.26l0.482-0.265l-1.786-4.753l1.279-1.472l0.313,0.133
				l-1.219,1.412l1.689,4.5c0.097-0.072,0.152-0.116,0.169-0.132l0.397-0.338c0.241-0.193,0.395-0.33,0.459-0.41
				c0.209,0.917,0.53,1.737,0.965,2.461c-0.233-0.016-0.402-0.024-0.507-0.024c-0.764,0-1.323,0.121-1.677,0.362l2.184,5.923
				l1.81,1.399h-6.092l1.664-1.399l-1.339-3.523c-0.885,0.893-1.564,1.742-2.039,2.545l-0.277-0.071
				c0.475-0.789,1.183-1.669,2.124-2.643l0.096-0.121l-0.229-0.531c-0.958,0.796-1.75,1.722-2.377,2.775l-0.217-0.35
				c-0.419-0.668-0.953-1.428-1.604-2.28l-0.121-0.145c-0.619,1.375-0.929,2.494-0.929,3.354c0,0.506,0.086,0.935,0.26,1.285
				c0.173,0.35,0.589,0.935,1.248,1.755c0.057,0.072,0.145,0.185,0.266,0.337h-6.515l-0.241-0.326h6.141l-0.205-0.253
				c-0.531-0.644-0.879-1.144-1.044-1.502c-0.164-0.357-0.247-0.777-0.247-1.26c0-0.821,0.334-2.043,1.001-3.668l-0.53-0.555
				c-0.104,0.258-0.237,0.636-0.398,1.134l-0.397,1.23c-0.218,0.66-0.326,1.207-0.326,1.641c0,0.452,0.076,0.825,0.229,1.123
				c0.152,0.297,0.474,0.704,0.965,1.219c0.048,0.048,0.121,0.125,0.217,0.229h-6.031c1.149-0.594,2.061-1.395,2.732-2.4
				c0.671-1.006,1.337-2.558,1.996-4.657l0.049-0.169c-0.427-0.362-1.042-0.583-1.846-0.664c0.441-0.659,0.784-1.347,1.025-2.063
				c0.112,0.104,0.181,0.168,0.205,0.193l0.542,0.507c0.186,0.177,0.406,0.358,0.664,0.542l0.217-0.531l-0.145-0.121
				c-0.402-0.354-0.74-0.639-1.014-0.856l-0.108-0.084l0.193-0.265c0.426,0.282,0.836,0.607,1.23,0.977l1.641-4.512l-1.279-1.375
				H360.759z M357.236,229.517l-1.918,5.067c0.611,0.627,1.138,1.247,1.58,1.857l0.556,0.772c0.007,0.008,0.048,0.06,0.12,0.157
				c0.072-0.072,0.112-0.117,0.121-0.133l0.169-0.205c0.023-0.032,0.067-0.084,0.132-0.157c-0.563-0.869-1.218-1.653-1.966-2.353
				l1.544-4.078L357.236,229.517z M357.779,230.917l-1.327,3.499c0.072,0.081,0.112,0.128,0.121,0.145l0.494,0.555
				c0.266,0.29,0.604,0.74,1.014,1.351l0.12,0.181c0.346-0.434,0.756-0.864,1.23-1.291L357.779,230.917z M364.33,232.979
				c0.177,0.724,0.619,1.717,1.327,2.979c-0.178-0.024-0.277-0.036-0.302-0.036l-0.978-0.084c-0.442-0.04-0.764-0.06-0.965-0.06
				c-0.032,0-0.113,0.004-0.241,0.012l2.015,5.345l2.69,2.376h-6.985l-0.229-0.326h6.406l-2.172-1.918l-2.146-5.682
				c0.272-0.072,0.587-0.108,0.94-0.108c0.435,0,0.917,0.036,1.448,0.108l-0.146-0.265c-0.515-0.949-0.86-1.806-1.037-2.57
				L364.33,232.979z"/>
			<path fill="#FFC200" d="M368.963,227.044h5.417c2.299,0,3.937,0.318,4.909,0.953c1.239,0.796,1.857,1.902,1.857,3.317
				c0,0.861-0.237,1.609-0.712,2.244s-1.138,1.094-1.991,1.375c-0.851,0.282-2.207,0.422-4.063,0.422h-1.485v5.839l1.473,1.327
				h-5.609l1.676-1.412v-4.837c-0.097-0.007-0.164-0.012-0.204-0.012c-0.579,0-1.135,0.125-1.665,0.374l-0.108-0.217
				c0.538-0.306,1.021-0.458,1.447-0.458h0.434l0.097-0.012v-0.591c-0.184-0.024-0.31-0.036-0.374-0.036
				c-0.86,0-1.548,0.209-2.063,0.627l-0.12-0.181c0.49-0.9,1.278-1.351,2.363-1.351h0.193v-5.912L368.963,227.044z M380.531,228.335
				c0.49,0.241,0.886,0.665,1.183,1.272c0.298,0.607,0.445,1.297,0.445,2.069c0,1.746-0.676,3-2.026,3.764
				c-1.021,0.579-2.767,0.869-5.235,0.869c-0.41,0-0.756-0.008-1.038-0.024v4.982l1.895,2.244h-6.044l-0.325-0.326h5.681
				l-1.544-1.786v-5.44c0.701,0.041,1.444,0.061,2.232,0.061c2.075,0,3.616-0.366,4.62-1.098c1.006-0.731,1.508-1.854,1.508-3.366
				c0-0.627-0.096-1.172-0.289-1.635C381.399,229.458,381.047,228.93,380.531,228.335z M372.895,228.287v6.044h0.157l0.314,0.012
				c0.031,0,0.084-0.004,0.155-0.012v-5.38h1.328c1.029,0,1.756,0.09,2.178,0.271c0.422,0.181,0.781,0.557,1.079,1.128
				c-0.298-0.41-0.67-0.698-1.115-0.863c-0.446-0.165-1.075-0.247-1.888-0.247h-1.244v5.091c1.593,0,2.762-0.233,3.506-0.7
				s1.116-1.198,1.116-2.196c0-1.118-0.332-1.93-0.996-2.437c-0.664-0.506-1.731-0.76-3.202-0.76
				C373.904,228.238,373.442,228.254,372.895,228.287z"/>
			<path fill="#FFC200" d="M393.935,227.044l-1.628,1.628v8.963v0.386c0,0.604,0.2,1.013,0.602,1.231
				c-0.096,1.054-0.606,1.912-1.531,2.575c-0.925,0.663-2.075,0.996-3.45,0.996c-2.533,0-4.162-0.993-4.886-2.98l-0.17-0.458
				c-0.08-0.233-0.179-0.393-0.295-0.477c-0.116-0.084-0.34-0.155-0.67-0.211l3.607-2.69c-0.128,0.789-0.192,1.584-0.192,2.389
				c0,1.085,0.215,1.953,0.645,2.6c0.431,0.647,1.012,0.971,1.744,0.971c1.455,0,2.184-1.154,2.184-3.463v-9.976l-1.641-1.484
				H393.935z M394.43,227.72l-1.184,1.206v8.819v0.47l0.17,0.736c0.104,0.209,0.325,0.422,0.663,0.64
				c-0.113,0.683-0.458,1.383-1.037,2.098c-1.166,1.456-2.803,2.184-4.911,2.184c-1.607,0-2.895-0.462-3.86-1.387v-0.096
				c0.604,0.458,1.171,0.773,1.702,0.946c0.53,0.173,1.189,0.26,1.979,0.26c1.399,0,2.647-0.372,3.745-1.116
				c1.098-0.744,1.771-1.671,2.021-2.781c-0.369-0.297-0.595-0.55-0.675-0.76c-0.08-0.208-0.121-0.63-0.121-1.267v-8.879
				l1.327-1.327L394.43,227.72z M386.636,236.285l-0.023,0.157c-0.153,0.909-0.229,1.568-0.229,1.979
				c0,1.561,0.583,2.622,1.748,3.185h-0.18c-1.263-0.37-1.895-1.364-1.895-2.979c0-0.821,0.089-1.601,0.266-2.341H386.636z"/>
			<path fill="#FFC200" d="M406.746,227.044l-1.255,1.423l1.979,5.26l0.482-0.265l-1.785-4.753l1.279-1.472l0.313,0.133
				l-1.219,1.412l1.689,4.5c0.097-0.072,0.152-0.116,0.169-0.132l0.398-0.338c0.241-0.193,0.394-0.33,0.457-0.41
				c0.21,0.917,0.531,1.737,0.966,2.461c-0.233-0.016-0.402-0.024-0.506-0.024c-0.765,0-1.323,0.121-1.678,0.362l2.184,5.923
				l1.811,1.399h-6.093l1.664-1.399l-1.339-3.523c-0.885,0.893-1.563,1.742-2.038,2.545l-0.278-0.071
				c0.475-0.789,1.183-1.669,2.123-2.643l0.097-0.121l-0.229-0.531c-0.958,0.796-1.75,1.722-2.377,2.775l-0.217-0.35
				c-0.419-0.668-0.953-1.428-1.604-2.28l-0.121-0.145c-0.619,1.375-0.929,2.494-0.929,3.354c0,0.506,0.086,0.935,0.26,1.285
				c0.173,0.35,0.589,0.935,1.248,1.755c0.057,0.072,0.145,0.185,0.266,0.337h-6.515l-0.241-0.326h6.141l-0.205-0.253
				c-0.531-0.644-0.879-1.144-1.044-1.502c-0.165-0.357-0.246-0.777-0.246-1.26c0-0.821,0.333-2.043,1-3.668l-0.53-0.555
				c-0.104,0.258-0.237,0.636-0.398,1.134l-0.397,1.23c-0.218,0.66-0.326,1.207-0.326,1.641c0,0.452,0.077,0.825,0.229,1.123
				s0.475,0.704,0.965,1.219c0.048,0.048,0.121,0.125,0.217,0.229h-6.031c1.15-0.594,2.061-1.395,2.732-2.4
				c0.671-1.006,1.337-2.558,1.996-4.657l0.049-0.169c-0.427-0.362-1.042-0.583-1.847-0.664c0.443-0.659,0.785-1.347,1.026-2.063
				c0.112,0.104,0.181,0.168,0.205,0.193l0.543,0.507c0.185,0.177,0.406,0.358,0.663,0.542l0.217-0.531l-0.145-0.121
				c-0.402-0.354-0.739-0.639-1.014-0.856l-0.108-0.084l0.193-0.265c0.427,0.282,0.837,0.607,1.23,0.977l1.641-4.512l-1.278-1.375
				H406.746z M403.224,229.517l-1.918,5.067c0.611,0.627,1.138,1.247,1.58,1.857l0.556,0.772c0.008,0.008,0.048,0.06,0.12,0.157
				c0.073-0.072,0.112-0.117,0.121-0.133l0.168-0.205c0.025-0.032,0.068-0.084,0.133-0.157c-0.563-0.869-1.218-1.653-1.966-2.353
				l1.544-4.078L403.224,229.517z M403.767,230.917l-1.327,3.499c0.072,0.081,0.113,0.128,0.121,0.145l0.495,0.555
				c0.265,0.29,0.603,0.74,1.013,1.351l0.12,0.181c0.347-0.434,0.757-0.864,1.231-1.291L403.767,230.917z M410.317,232.979
				c0.177,0.724,0.619,1.717,1.327,2.979c-0.177-0.024-0.277-0.036-0.302-0.036l-0.978-0.084c-0.442-0.04-0.764-0.06-0.965-0.06
				c-0.032,0-0.112,0.004-0.241,0.012l2.015,5.345l2.69,2.376h-6.985l-0.229-0.326h6.406l-2.171-1.918l-2.147-5.682
				c0.272-0.072,0.587-0.108,0.94-0.108c0.435,0,0.917,0.036,1.448,0.108l-0.146-0.265c-0.514-0.949-0.86-1.806-1.037-2.57
				L410.317,232.979z"/>
			<path fill="#FFC200" d="M426.952,227.418l-0.132,0.229c-0.724,1.263-1.352,2.526-1.882,3.788l-0.109,0.277l-0.157-0.084
				c-0.185-1.222-0.614-2.191-1.29-2.907c-0.676-0.715-1.492-1.074-2.449-1.074c-1.021,0-1.874,0.446-2.557,1.339
				c-0.861,1.11-1.292,2.992-1.292,5.646c0,2.285,0.396,4.074,1.188,5.368c0.792,1.295,1.893,1.943,3.3,1.943
				c1.126,0,2.024-0.376,2.696-1.128c0.671-0.752,1.071-1.828,1.2-3.227c0.032-0.338,0.168-0.507,0.409-0.507
				c0.314,0,0.472,0.261,0.472,0.784c0,0.78-0.177,1.588-0.531,2.424c-0.748,1.77-2.292,2.654-4.633,2.654
				c-2.091,0-3.752-0.733-4.981-2.201c-1.231-1.468-1.846-3.452-1.846-5.954c0-2.308,0.64-4.242,1.917-5.803
				c1.28-1.56,2.867-2.34,4.766-2.34c0.9,0,1.927,0.221,3.077,0.664c0.603,0.233,1.101,0.35,1.496,0.35
				c0.425,0,0.808-0.116,1.146-0.35L426.952,227.418z M427.387,237.793c-0.128,1.995-0.686,3.512-1.671,4.554
				c-0.985,1.042-2.362,1.562-4.132,1.562c-1.343,0-2.594-0.414-3.752-1.242v-0.097c1.03,0.676,2.272,1.014,3.729,1.014
				c1.592,0,2.891-0.511,3.896-1.532c0.49-0.499,0.852-1.058,1.085-1.677c0.233-0.619,0.391-1.439,0.471-2.461l0.023-0.278
				L427.387,237.793z M423.454,229.505c-0.731-0.587-1.424-0.88-2.075-0.88c-2.083,0-3.125,1.986-3.125,5.959
				c0,1.81,0.241,3.315,0.724,4.518c0.483,1.202,1.163,1.98,2.04,2.334v0.121c-0.949-0.193-1.707-0.923-2.274-2.189
				c-0.566-1.267-0.851-2.869-0.851-4.808c0-4.158,1.143-6.237,3.427-6.237c0.771,0,1.483,0.342,2.135,1.025V229.505z
				 M427.834,227.997l-0.134,0.229c-0.876,1.496-1.576,2.859-2.099,4.09l-0.325-0.157l0.132-0.302
				c0.402-0.845,0.756-1.544,1.062-2.099l0.965-1.713l0.121-0.217L427.834,227.997z"/>
			<path fill="#FFC200" d="M428.75,227.044h5.646l-1.678,1.592v7.287l0.664-0.76v-6.43l1.352-1.315l0.18,0.265l-1.242,1.207v5.899
				l3.739-4.464c0.54-0.643,0.809-1.222,0.809-1.737c0-0.305-0.152-0.597-0.458-0.874c-0.306-0.278-0.676-0.46-1.11-0.549v-0.121
				h6.357v0.121c-1.391,0.338-2.891,1.472-4.499,3.402l-1.678,1.991l4.452,8.649l2.026,1.315h-6.261l1.58-1.182l-2.991-5.983
				l-1.967,2.4v3.45l1.967,2.304h-6.189l-0.325-0.326h5.79l-1.531-1.846v-3.74l2.099-2.582l-0.265-0.531l-2.498,2.968v3.751
				l1.46,1.315h-5.524l1.652-1.412v-12.63L428.75,227.044z M443.613,228.142c-1.191,0.081-2.377,0.776-3.56,2.087l-2.111,2.341
				l4.259,8.637l3.413,2.304h-7.672l-0.338-0.326h6.985l-2.569-1.749l-4.416-8.867l2.244-2.534c1.174-1.311,2.385-2.027,3.631-2.147
				L443.613,228.142z"/>
			<path fill="#FFC200" d="M465.195,227.466l-2.256,4.439c-0.145-1.263-0.541-2.228-1.188-2.896
				c-0.647-0.667-1.502-1.001-2.563-1.001c-1.512,0-2.688,0.587-3.528,1.762c-0.841,1.174-1.261,2.819-1.261,4.934
				c0,4.656,1.905,6.984,5.718,6.984h1.942v-6.261h-3.04c-0.659,0-1.132-0.036-1.417-0.108c-0.286-0.073-0.562-0.229-0.827-0.471
				v-0.302c0.29,0.217,0.579,0.36,0.869,0.429c0.289,0.068,0.761,0.103,1.411,0.103h3.004v-0.652h-3.354h-0.543
				c-1.198,0-1.798-0.434-1.798-1.303c0-0.338,0.101-0.627,0.303-0.869c0.2-0.241,0.441-0.362,0.724-0.362
				c0.208,0,0.392,0.077,0.549,0.229c0.156,0.153,0.234,0.334,0.234,0.543c0,0.354-0.128,0.559-0.386,0.615l-0.289,0.061
				c-0.097,0.024-0.146,0.064-0.146,0.121c0,0.104,0.134,0.157,0.398,0.157h0.41h7.963l-1.666,1.628v5.948l1.544,1.327h-6.164
				h-1.219c-1.021,0-1.865-0.125-2.532-0.374c-0.668-0.249-1.344-0.692-2.027-1.328c-1.617-1.479-2.425-3.462-2.425-5.947
				c0-2.565,0.765-4.568,2.292-6.008c1.335-1.263,2.92-1.894,4.753-1.894c0.82,0,1.762,0.145,2.823,0.434
				c1.086,0.298,1.802,0.446,2.147,0.446C464.158,227.852,464.672,227.724,465.195,227.466z M462.059,230.06l-0.217-0.157
				c-0.917-0.651-1.754-0.977-2.51-0.977c-0.917,0-1.709,0.326-2.376,0.977c-0.482,0.483-0.831,1.114-1.044,1.894
				c-0.213,0.78-0.319,1.81-0.319,3.088c0,1.625,0.161,2.867,0.482,3.728c0.321,0.86,0.913,1.637,1.772,2.329v0.132
				c-0.932-0.555-1.604-1.337-2.014-2.347s-0.615-2.378-0.615-4.107c0-1.906,0.357-3.388,1.073-4.445
				c0.717-1.058,1.721-1.587,3.017-1.587c1.126,0,2.043,0.467,2.75,1.399V230.06z M466.643,234.306l-1.242,1.243v5.658l2.002,2.304
				l-4.789-0.036l-4.343,0.048c-0.273,0-0.482-0.008-0.627-0.023c-0.507-0.056-1.018-0.278-1.532-0.664h0.253
				c0.548,0.241,1.296,0.362,2.244,0.362l0.604-0.012h7.515l-1.663-1.846v-5.911l1.387-1.399L466.643,234.306z M465.919,228.226
				l-2.063,4.054l-0.289-0.133l2.074-4.065L465.919,228.226z"/>
			<path fill="#FFC200" d="M479.563,227.044l-1.254,1.423l1.979,5.26l0.482-0.265l-1.786-4.753l1.28-1.472l0.313,0.133l-1.218,1.412
				l1.688,4.5c0.097-0.072,0.152-0.116,0.169-0.132l0.398-0.338c0.241-0.193,0.394-0.33,0.458-0.41
				c0.209,0.917,0.53,1.737,0.965,2.461c-0.232-0.016-0.401-0.024-0.506-0.024c-0.765,0-1.323,0.121-1.677,0.362l2.183,5.923
				l1.811,1.399h-6.093l1.665-1.399l-1.34-3.523c-0.884,0.893-1.563,1.742-2.038,2.545l-0.278-0.071
				c0.476-0.789,1.184-1.669,2.124-2.643l0.096-0.121l-0.229-0.531c-0.957,0.796-1.75,1.722-2.377,2.775l-0.216-0.35
				c-0.419-0.668-0.954-1.428-1.605-2.28l-0.12-0.145c-0.62,1.375-0.929,2.494-0.929,3.354c0,0.506,0.085,0.935,0.259,1.285
				c0.173,0.35,0.59,0.935,1.249,1.755c0.056,0.072,0.145,0.185,0.265,0.337h-6.514l-0.241-0.326h6.141l-0.206-0.253
				c-0.53-0.644-0.878-1.144-1.043-1.502c-0.165-0.357-0.247-0.777-0.247-1.26c0-0.821,0.333-2.043,1.001-3.668l-0.531-0.555
				c-0.104,0.258-0.237,0.636-0.398,1.134l-0.397,1.23c-0.217,0.66-0.326,1.207-0.326,1.641c0,0.452,0.077,0.825,0.229,1.123
				s0.475,0.704,0.965,1.219c0.049,0.048,0.121,0.125,0.218,0.229h-6.032c1.15-0.594,2.062-1.395,2.732-2.4
				c0.671-1.006,1.338-2.558,1.997-4.657l0.048-0.169c-0.427-0.362-1.041-0.583-1.846-0.664c0.442-0.659,0.784-1.347,1.025-2.063
				c0.113,0.104,0.181,0.168,0.205,0.193l0.543,0.507c0.186,0.177,0.406,0.358,0.664,0.542l0.216-0.531l-0.145-0.121
				c-0.401-0.354-0.739-0.639-1.014-0.856l-0.107-0.084l0.192-0.265c0.427,0.282,0.837,0.607,1.23,0.977l1.641-4.512l-1.278-1.375
				H479.563z M476.04,229.517l-1.918,5.067c0.611,0.627,1.139,1.247,1.58,1.857l0.556,0.772c0.008,0.008,0.049,0.06,0.12,0.157
				c0.073-0.072,0.113-0.117,0.121-0.133l0.169-0.205c0.024-0.032,0.068-0.084,0.133-0.157c-0.563-0.869-1.218-1.653-1.967-2.353
				l1.544-4.078L476.04,229.517z M476.583,230.917l-1.326,3.499c0.072,0.081,0.112,0.128,0.12,0.145l0.495,0.555
				c0.265,0.29,0.603,0.74,1.014,1.351l0.119,0.181c0.347-0.434,0.757-0.864,1.231-1.291L476.583,230.917z M483.134,232.979
				c0.178,0.724,0.619,1.717,1.328,2.979c-0.178-0.024-0.278-0.036-0.303-0.036l-0.978-0.084c-0.441-0.04-0.764-0.06-0.965-0.06
				c-0.032,0-0.112,0.004-0.241,0.012l2.015,5.345l2.691,2.376h-6.985l-0.229-0.326h6.406l-2.172-1.918l-2.147-5.682
				c0.273-0.072,0.587-0.108,0.941-0.108c0.434,0,0.916,0.036,1.447,0.108l-0.145-0.265c-0.515-0.949-0.861-1.806-1.038-2.57
				L483.134,232.979z"/>
			<path fill="#FFC200" d="M503.34,227.044l-1.653,1.677v12.389l1.484,1.412h-5.549l1.677-1.412v-8.119l-3.824,10.52h-1.158
				l-0.097-0.326h1.05l4.029-11.219v-1.846l-4.487,12.389h-0.846l-3.305-9.735v6.382c0,0.853,0.057,1.456,0.169,1.809
				c0.112,0.354,0.378,0.744,0.797,1.17l1.085,1.375h-6.31l-0.217-0.326h5.924l-0.447-0.664h-5.38l0.253-0.132
				c0.894-0.491,1.481-0.988,1.768-1.491c0.285-0.502,0.429-1.296,0.429-2.382v-9.977l-1.593-1.496h6.236l-1.748,1.581l3.413,10.098
				l0.435-1.05l-3.089-8.951l1.58-1.17l0.254,0.205l-1.508,1.062l2.871,8.408l3.112-8.601l-1.471-1.581H503.34z M489.684,229.903
				v8.662c0,1.327,0.127,2.24,0.38,2.738c0.254,0.5,0.778,0.861,1.575,1.087l-0.108-0.182c-0.789-0.547-1.184-1.335-1.184-2.364
				v-0.893v-7.129L489.684,229.903z M504.016,227.985l-1.363,0.977v12.161l2.1,2.388h-6.406l-0.169-0.326h5.839l-1.677-1.894
				v-12.534l1.423-0.977L504.016,227.985z"/>
			<path fill="#FFC200" d="M518.239,227.044l-0.192,0.229c-0.82,1.006-1.473,2.16-1.955,3.462c-0.08-0.185-0.141-0.321-0.181-0.41
				c-0.442-0.965-0.917-1.588-1.424-1.87s-1.415-0.422-2.727-0.422c-0.603,0-1.326,0.02-2.171,0.06v5.549h0.771v-4.91
				c0.611-0.056,1.194-0.084,1.75-0.084c1.021,0,1.773,0.108,2.256,0.326s0.913,0.639,1.29,1.267
				c-0.112-0.08-0.193-0.14-0.241-0.181c-0.65-0.515-1.121-0.82-1.411-0.917c-0.289-0.097-0.86-0.145-1.713-0.145
				c-0.258,0-0.716,0.017-1.375,0.048l-0.253,0.012v4.584h2.22l1.556-2.135v5.2l-1.556-2.015h-3.294v6.768h0.771v-6.201h2.618
				l0.313,0.314h-2.629v5.887c1.641,0,2.807-0.117,3.497-0.35c0.692-0.233,1.235-0.691,1.629-1.375l0.64-1.098
				c0.024-0.048,0.073-0.136,0.145-0.266c0.209,0.885,0.469,1.593,0.778,2.124s0.822,1.15,1.538,1.858h-13.523l1.834-1.399v-5.38
				c-0.676,0.08-1.286,0.289-1.834,0.627l-0.169-0.253c0.491-0.354,1.158-0.583,2.003-0.688v-0.567
				c-0.137-0.016-0.233-0.024-0.289-0.024c-0.82,0-1.568,0.301-2.244,0.905c0.369-1.287,1.214-1.931,2.533-1.931v-5.151
				l-1.834-1.448H518.239z M520.267,242.425l-0.627,1.085h-13.174l-0.193-0.326h13.209l0.41-0.76
				c-1.157-1.069-1.974-2.212-2.449-3.426l0.387,0.145c0.442,1.029,1.19,2.059,2.244,3.088L520.267,242.425z M515.271,231.906v5.332
				l-0.302-0.157v-5.332L515.271,231.906z M518.818,227.888l-0.084,0.109c-0.981,1.319-1.637,2.425-1.967,3.317l-0.205-0.253
				c0.539-1.246,1.234-2.389,2.087-3.426L518.818,227.888z"/>
		</g>
		<polygon opacity="0.5" fill="#FFFFFF" points="501.515,185.634 492.286,198.511 492.29,198.512 492.286,198.514 501.488,211.027 
			510.702,198.717 		"/>
		<g opacity="0.5">
			<path fill="#FFFFFF" d="M511.058,283.307c0,2.867-2.324,5.191-5.189,5.19c-2.867,0-5.191-2.323-5.191-5.189
				c0,2.866-2.322,5.188-5.188,5.188c-2.865,0-5.189-2.322-5.189-5.188c-0.001-2.867,2.323-5.19,5.188-5.19
				c0.865,0,1.681,0.211,2.396,0.587c-1.439-0.921-2.395-2.535-2.395-4.373c0-2.866,2.323-5.189,5.188-5.189
				c2.867,0,5.191,2.324,5.191,5.191c0.001,1.831-0.948,3.439-2.38,4.362c0.714-0.371,1.522-0.578,2.381-0.578
				C508.733,278.118,511.058,280.44,511.058,283.307z"/>
			<polygon fill="#FFFFFF" points="498.099,291.366 500.707,286.846 503.316,291.366 			"/>
		</g>
		<g opacity="0.5">
			<polygon fill="#FFFFFF" points="338.546,293.306 341.435,288.303 344.321,293.305 			"/>
			<path fill="#FFFFFF" d="M341.435,269.498l8.599,10.249c1.931,2.299,1.632,5.729-0.668,7.657c-2.3,1.93-5.729,1.63-7.658-0.668
				l-0.272-0.326l-0.272,0.325c-1.931,2.3-5.359,2.6-7.658,0.671c-2.3-1.931-2.601-5.358-0.671-7.659L341.435,269.498z"/>
		</g>
		<g opacity="0.5">
			<path fill="#FFFFFF" d="M332.433,190.301c2.611-2.189,6.501-1.85,8.691,0.762l0.31,0.37l0.31-0.37
				c2.189-2.61,6.081-2.951,8.69-0.762c2.609,2.19,2.95,6.081,0.76,8.691l-9.76,11.631l-9.761-11.631
				C329.483,196.382,329.824,192.491,332.433,190.301z"/>
		</g>
		
			<rect x="420.005" y="313.42" transform="matrix(0.707 -0.7073 0.7073 0.707 -99.2703 390.5424)" fill="#FFFFFF" width="3.292" height="3.292"/>
		
			<rect x="420.006" y="157.727" transform="matrix(0.707 -0.7072 0.7072 0.707 10.8245 344.8749)" fill="#FFFFFF" width="3.291" height="3.291"/>
		
			<rect x="307.799" y="124.07" transform="matrix(0.7071 0.7071 -0.7071 0.7071 291.0304 -228.1744)" fill="none" stroke="#FFFFFF" stroke-miterlimit="10" width="226.29" height="226.29"/>
		<path fill="none" stroke="#FFFFFF" stroke-miterlimit="10" d="M313.895,218.132c-3.385,0-6.129-2.744-6.129-6.129
			c0,3.385-2.743,6.129-6.129,6.129c3.386,0,6.129,2.744,6.129,6.129C307.766,220.876,310.51,218.132,313.895,218.132z"/>
		<path fill="none" stroke="#FFFFFF" stroke-miterlimit="10" d="M313.895,252.364c-3.385,0-6.129-2.744-6.129-6.128
			c0,3.384-2.743,6.128-6.129,6.128c3.386,0,6.129,2.744,6.129,6.128C307.766,255.108,310.51,252.364,313.895,252.364z"/>
		<line fill="none" stroke="#FFFFFF" stroke-miterlimit="10" x1="313.895" y1="218.132" x2="525.893" y2="218.132"/>
		<line fill="none" stroke="#FFFFFF" stroke-miterlimit="10" x1="313.895" y1="252.364" x2="525.893" y2="252.364"/>
		<g>
			<line fill="none" stroke="#727272" x1="411.949" y1="205.376" x2="430.812" y2="205.376"/>
			<line fill="none" stroke="#727272" x1="421.381" y1="214.808" x2="421.381" y2="195.945"/>
			<line fill="none" stroke="#727272" x1="415.379" y1="211.378" x2="427.383" y2="199.375"/>
			<line fill="none" stroke="#727272" x1="427.383" y1="211.378" x2="415.379" y2="199.375"/>
		</g>
		<g>
			<line fill="none" stroke="#727272" x1="411.95" y1="266.122" x2="430.813" y2="266.122"/>
			<line fill="none" stroke="#727272" x1="421.382" y1="275.553" x2="421.382" y2="256.691"/>
			<line fill="none" stroke="#727272" x1="415.38" y1="272.124" x2="427.384" y2="260.12"/>
			<line fill="none" stroke="#727272" x1="427.384" y1="272.124" x2="415.38" y2="260.12"/>
		</g>
		<g>
			<line fill="none" stroke="#727272" x1="415.418" y1="182.796" x2="427.345" y2="170.87"/>
			<line fill="none" stroke="#727272" x1="427.345" y1="182.796" x2="415.418" y2="170.87"/>
		</g>
		<g>
			<line fill="none" stroke="#727272" x1="401.527" y1="188.117" x2="407.572" y2="172.371"/>
			<line fill="none" stroke="#727272" x1="412.423" y1="183.266" x2="396.677" y2="177.222"/>
		</g>
		<g>
			<line fill="none" stroke="#727272" x1="391.003" y1="198.627" x2="390.12" y2="181.784"/>
			<line fill="none" stroke="#727272" x1="398.982" y1="189.764" x2="382.14" y2="190.647"/>
		</g>
		<g>
			<line fill="none" stroke="#727272" x1="385.662" y1="212.51" x2="378.005" y2="197.482"/>
			<line fill="none" stroke="#727272" x1="389.347" y1="201.167" x2="374.319" y2="208.825"/>
		</g>
		<g>
			<line fill="none" stroke="#727272" x1="452.874" y1="201.916" x2="467.902" y2="209.572"/>
			<line fill="none" stroke="#727272" x1="456.56" y1="213.257" x2="464.215" y2="198.228"/>
		</g>
		<g>
			<line fill="none" stroke="#727272" x1="443.521" y1="190.349" x2="460.365" y2="191.23"/>
			<line fill="none" stroke="#727272" x1="451.502" y1="199.21" x2="452.382" y2="182.367"/>
		</g>
		<g>
			<line fill="none" stroke="#727272" x1="430.273" y1="183.586" x2="446.02" y2="177.541"/>
			<line fill="none" stroke="#727272" x1="441.167" y1="188.435" x2="435.121" y2="172.69"/>
		</g>
		<g>
			<line fill="none" stroke="#727272" x1="415.688" y1="288.484" x2="427.615" y2="300.41"/>
			<line fill="none" stroke="#727272" x1="427.615" y1="288.484" x2="415.688" y2="300.41"/>
		</g>
		<g>
			<line fill="none" stroke="#727272" x1="401.798" y1="283.164" x2="407.843" y2="298.91"/>
			<line fill="none" stroke="#727272" x1="412.693" y1="288.015" x2="396.946" y2="294.059"/>
		</g>
		<g>
			<line fill="none" stroke="#727272" x1="391.272" y1="272.654" x2="390.39" y2="289.497"/>
			<line fill="none" stroke="#727272" x1="399.253" y1="281.517" x2="382.409" y2="280.633"/>
		</g>
		<g>
			<line fill="none" stroke="#727272" x1="385.932" y1="258.771" x2="378.274" y2="273.799"/>
			<line fill="none" stroke="#727272" x1="389.617" y1="270.113" x2="374.59" y2="262.456"/>
		</g>
		<g>
			<line fill="none" stroke="#727272" x1="453.144" y1="269.365" x2="468.172" y2="261.708"/>
			<line fill="none" stroke="#727272" x1="456.829" y1="258.024" x2="464.484" y2="273.053"/>
		</g>
		<g>
			<line fill="none" stroke="#727272" x1="443.792" y1="280.931" x2="460.635" y2="280.05"/>
			<line fill="none" stroke="#727272" x1="451.771" y1="272.071" x2="452.652" y2="288.914"/>
		</g>
		<g>
			<line fill="none" stroke="#727272" x1="430.544" y1="287.695" x2="446.289" y2="293.74"/>
			<line fill="none" stroke="#727272" x1="441.438" y1="282.846" x2="435.392" y2="298.591"/>
		</g>
		<circle fill="none" stroke="#727272" cx="384.865" cy="170.87" r="2.624"/>
		<circle fill="none" stroke="#727272" cx="458.018" cy="170.87" r="2.623"/>
		<circle fill="none" stroke="#727272" cx="384.865" cy="303.447" r="2.624"/>
		<circle fill="none" stroke="#727272" cx="457.849" cy="303.447" r="2.624"/>
		<g>
			<circle fill="none" stroke="#727272" stroke-width="0.5" stroke-miterlimit="10" cx="437.49" cy="208.692" r="1.565"/>
			<g>
				<circle fill="none" stroke="#727272" stroke-width="0.5" stroke-miterlimit="10" cx="439.648" cy="212.469" r="1.565"/>
				<circle fill="none" stroke="#727272" stroke-width="0.5" stroke-miterlimit="10" cx="435.332" cy="212.469" r="1.565"/>
			</g>
		</g>
		<g>
			<circle fill="none" stroke="#727272" stroke-width="0.5" stroke-miterlimit="10" cx="405.282" cy="208.692" r="1.565"/>
			<g>
				<circle fill="none" stroke="#727272" stroke-width="0.5" stroke-miterlimit="10" cx="407.44" cy="212.469" r="1.565"/>
				<circle fill="none" stroke="#727272" stroke-width="0.5" stroke-miterlimit="10" cx="403.124" cy="212.469" r="1.565"/>
			</g>
		</g>
		<g>
			<circle fill="none" stroke="#727272" stroke-width="0.5" stroke-miterlimit="10" cx="437.447" cy="262.009" r="1.565"/>
			<g>
				<circle fill="none" stroke="#727272" stroke-width="0.5" stroke-miterlimit="10" cx="439.605" cy="258.232" r="1.565"/>
				<circle fill="none" stroke="#727272" stroke-width="0.5" stroke-miterlimit="10" cx="435.289" cy="258.232" r="1.565"/>
			</g>
		</g>
		<g>
			<circle fill="none" stroke="#727272" stroke-width="0.5" stroke-miterlimit="10" cx="405.239" cy="262.009" r="1.565"/>
			<g>
				<circle fill="none" stroke="#727272" stroke-width="0.5" stroke-miterlimit="10" cx="407.397" cy="258.232" r="1.565"/>
				<circle fill="none" stroke="#727272" stroke-width="0.5" stroke-miterlimit="10" cx="403.081" cy="258.232" r="1.565"/>
			</g>
		</g>
		<g>
			<path fill="none" stroke="#727272" d="M365.156,252.364v63.488c0,3.961,3.211,7.173,7.173,7.173h97.232
				c3.962,0,7.173-3.212,7.173-7.173v-63.488"/>
			<path fill="none" stroke="#727272" d="M476.734,218.132v-59.554c0-3.962-3.211-7.173-7.173-7.173h-97.232
				c-3.962,0-7.173,3.211-7.173,7.173v59.554"/>
		</g>
		<polygon fill="none" stroke="#727272" stroke-linejoin="round" points="470.748,158.042 445.287,158.042 451.652,164.407 
			451.652,164.407 464.383,164.407 464.383,177.137 464.383,177.137 470.748,183.502 		"/>
		<polygon fill="none" stroke="#727272" stroke-linejoin="round" points="372.135,158.042 397.595,158.042 391.229,164.407 
			391.229,164.407 378.499,164.407 378.499,177.137 378.499,177.137 372.135,183.502 		"/>
		<polygon fill="none" stroke="#727272" stroke-linejoin="round" points="470.748,316.178 445.287,316.178 451.652,309.812 
			451.652,309.813 464.383,309.813 464.383,297.083 464.383,297.083 470.748,290.717 		"/>
		<polygon fill="none" stroke="#727272" stroke-linejoin="round" points="372.135,316.178 397.595,316.178 391.229,309.812 
			391.229,309.813 378.499,309.813 378.499,297.083 378.499,297.083 372.135,290.717 		"/>
		<line fill="none" stroke="#727272" stroke-miterlimit="10" x1="400.666" y1="315.066" x2="414.48" y2="315.066"/>
		<line fill="none" stroke="#727272" stroke-miterlimit="10" x1="428.382" y1="315.066" x2="442.196" y2="315.066"/>
		<line fill="none" stroke="#727272" stroke-miterlimit="10" x1="400.666" y1="159.374" x2="414.48" y2="159.374"/>
		<line fill="none" stroke="#727272" stroke-miterlimit="10" x1="428.382" y1="159.374" x2="442.196" y2="159.374"/>
		<path fill="none" stroke="#727272" stroke-miterlimit="10" d="M450.966,341.996c0,1.761-1.428,3.188-3.188,3.188h-53.664
			c-1.761,0-3.188-1.428-3.188-3.188l0,0c0-1.761,1.427-3.188,3.188-3.188h53.664C449.538,338.809,450.966,340.235,450.966,341.996
			L450.966,341.996z"/>
		<path fill="none" stroke="#727272" stroke-miterlimit="10" d="M450.966,132.088c0,1.761-1.428,3.188-3.188,3.188h-53.664
			c-1.761,0-3.188-1.427-3.188-3.188l0,0c0-1.761,1.427-3.188,3.188-3.188h53.664C449.538,128.9,450.966,130.327,450.966,132.088
			L450.966,132.088z"/>
		<line fill="none" stroke="#727272" stroke-miterlimit="10" x1="395.651" y1="132.088" x2="446.239" y2="132.088"/>
		<line fill="none" stroke="#727272" stroke-miterlimit="10" x1="395.651" y1="341.996" x2="446.239" y2="341.996"/>
	</g>
	<rect x="29.741" y="34.065" fill="none" stroke="#FFFFFF" width="779.259" height="406.3"/>
	<rect x="17.091" y="21.415" fill="none" stroke="#FFFFFF" stroke-miterlimit="10" width="12.65" height="12.65"/>
	<rect x="17.091" y="440.365" fill="none" stroke="#FFFFFF" stroke-miterlimit="10" width="12.65" height="12.65"/>
	<rect x="809" y="21.415" fill="none" stroke="#FFFFFF" stroke-miterlimit="10" width="12.649" height="12.65"/>
	<rect x="809" y="440.365" fill="none" stroke="#FFFFFF" stroke-miterlimit="10" width="12.649" height="12.65"/>
	<g opacity="0.7">
		<defs>
			<path id="SVGID_5_" opacity="0.7" d="M158.544,107.066c-1.101,12.656-12.258,22.013-24.921,20.913l-1.786-0.16l0.151,1.793
				c1.108,12.656-8.249,23.813-20.905,24.921c-12.655,1.108-23.813-8.256-24.921-20.913l-4.94-56.418l56.418,4.941
				C150.295,83.252,159.651,94.41,158.544,107.066z"/>
		</defs>
		<clipPath id="SVGID_6_">
			<use xlink:href="#SVGID_5_"  overflow="visible"/>
		</clipPath>
		<g clip-path="url(#SVGID_6_)">
			<line fill="none" stroke="#FFFFFF" stroke-miterlimit="10" x1="3.028" y1="58.752" x2="112.235" y2="167.959"/>
			<line fill="none" stroke="#FFFFFF" stroke-miterlimit="10" x1="7.546" y1="58.752" x2="116.754" y2="167.959"/>
			<line fill="none" stroke="#FFFFFF" stroke-miterlimit="10" x1="12.064" y1="58.752" x2="121.272" y2="167.959"/>
			<line fill="none" stroke="#FFFFFF" stroke-miterlimit="10" x1="16.583" y1="58.752" x2="125.791" y2="167.959"/>
			<line fill="none" stroke="#FFFFFF" stroke-miterlimit="10" x1="21.102" y1="58.752" x2="130.309" y2="167.959"/>
			<line fill="none" stroke="#FFFFFF" stroke-miterlimit="10" x1="25.62" y1="58.752" x2="134.828" y2="167.959"/>
			<line fill="none" stroke="#FFFFFF" stroke-miterlimit="10" x1="30.139" y1="58.752" x2="139.346" y2="167.959"/>
			<line fill="none" stroke="#FFFFFF" stroke-miterlimit="10" x1="34.657" y1="58.752" x2="143.865" y2="167.959"/>
			<line fill="none" stroke="#FFFFFF" stroke-miterlimit="10" x1="39.175" y1="58.752" x2="148.383" y2="167.959"/>
			<line fill="none" stroke="#FFFFFF" stroke-miterlimit="10" x1="43.694" y1="58.752" x2="152.901" y2="167.959"/>
			<line fill="none" stroke="#FFFFFF" stroke-miterlimit="10" x1="48.212" y1="58.752" x2="157.42" y2="167.959"/>
			<line fill="none" stroke="#FFFFFF" stroke-miterlimit="10" x1="52.731" y1="58.752" x2="161.938" y2="167.959"/>
			<line fill="none" stroke="#FFFFFF" stroke-miterlimit="10" x1="57.249" y1="58.752" x2="166.457" y2="167.959"/>
			<line fill="none" stroke="#FFFFFF" stroke-miterlimit="10" x1="61.768" y1="58.752" x2="170.975" y2="167.959"/>
			<line fill="none" stroke="#FFFFFF" stroke-miterlimit="10" x1="66.286" y1="58.752" x2="175.494" y2="167.959"/>
			<line fill="none" stroke="#FFFFFF" stroke-miterlimit="10" x1="70.805" y1="58.752" x2="180.012" y2="167.959"/>
			<line fill="none" stroke="#FFFFFF" stroke-miterlimit="10" x1="75.323" y1="58.752" x2="184.53" y2="167.959"/>
			<line fill="none" stroke="#FFFFFF" stroke-miterlimit="10" x1="79.841" y1="58.752" x2="189.048" y2="167.959"/>
			<line fill="none" stroke="#FFFFFF" stroke-miterlimit="10" x1="84.36" y1="58.752" x2="193.566" y2="167.959"/>
			<line fill="none" stroke="#FFFFFF" stroke-miterlimit="10" x1="88.878" y1="58.752" x2="198.084" y2="167.959"/>
			<line fill="none" stroke="#FFFFFF" stroke-miterlimit="10" x1="93.397" y1="58.752" x2="202.602" y2="167.959"/>
			<line fill="none" stroke="#FFFFFF" stroke-miterlimit="10" x1="97.916" y1="58.752" x2="207.12" y2="167.959"/>
			<line fill="none" stroke="#FFFFFF" stroke-miterlimit="10" x1="102.434" y1="58.752" x2="211.638" y2="167.959"/>
			<line fill="none" stroke="#FFFFFF" stroke-miterlimit="10" x1="106.952" y1="58.752" x2="216.156" y2="167.959"/>
			<line fill="none" stroke="#FFFFFF" stroke-miterlimit="10" x1="111.471" y1="58.752" x2="220.674" y2="167.959"/>
			<line fill="none" stroke="#FFFFFF" stroke-miterlimit="10" x1="115.989" y1="58.752" x2="225.192" y2="167.959"/>
			<line fill="none" stroke="#FFFFFF" stroke-miterlimit="10" x1="120.508" y1="58.752" x2="229.71" y2="167.959"/>
		</g>
	</g>
	<g opacity="0.7">
		<defs>
			<path id="SVGID_7_" opacity="0.7" d="M750.401,341.318c8.837,8.838,8.837,23.167,0,31.999c-8.84,8.84-23.167,8.842-32.003,0.008
				c8.836,8.834,8.836,23.154,0,31.985c-8.833,8.837-23.156,8.842-31.992,0.007c-8.84-8.834-8.836-23.161-0.004-31.997
				c2.667-2.666,5.833-4.531,9.196-5.575c-7.278,1.598-15.198-0.433-20.862-6.099c-8.836-8.834-8.836-23.161-0.007-31.992
				c8.84-8.837,23.17-8.84,32.009,0c5.644,5.642,7.677,13.524,6.112,20.782c1.056-3.342,2.911-6.475,5.555-9.118
				C727.238,332.486,741.562,332.479,750.401,341.318z M751.379,390.029l-21.979-5.891l5.891,21.979L751.379,390.029z"/>
		</defs>
		<clipPath id="SVGID_8_">
			<use xlink:href="#SVGID_7_"  overflow="visible"/>
		</clipPath>
		<g clip-path="url(#SVGID_8_)">
			<line fill="none" stroke="#FFFFFF" stroke-miterlimit="10" x1="594.709" y1="312.879" x2="703.917" y2="422.087"/>
			<line fill="none" stroke="#FFFFFF" stroke-miterlimit="10" x1="599.227" y1="312.879" x2="708.435" y2="422.087"/>
			<line fill="none" stroke="#FFFFFF" stroke-miterlimit="10" x1="603.745" y1="312.879" x2="712.953" y2="422.087"/>
			<line fill="none" stroke="#FFFFFF" stroke-miterlimit="10" x1="608.265" y1="312.879" x2="717.472" y2="422.087"/>
			<line fill="none" stroke="#FFFFFF" stroke-miterlimit="10" x1="612.782" y1="312.879" x2="721.99" y2="422.087"/>
			<line fill="none" stroke="#FFFFFF" stroke-miterlimit="10" x1="617.301" y1="312.879" x2="726.509" y2="422.087"/>
			<line fill="none" stroke="#FFFFFF" stroke-miterlimit="10" x1="621.819" y1="312.879" x2="731.026" y2="422.087"/>
			<line fill="none" stroke="#FFFFFF" stroke-miterlimit="10" x1="626.338" y1="312.879" x2="735.545" y2="422.087"/>
			<line fill="none" stroke="#FFFFFF" stroke-miterlimit="10" x1="630.856" y1="312.879" x2="740.064" y2="422.087"/>
			<line fill="none" stroke="#FFFFFF" stroke-miterlimit="10" x1="635.374" y1="312.879" x2="744.582" y2="422.087"/>
			<line fill="none" stroke="#FFFFFF" stroke-miterlimit="10" x1="639.894" y1="312.879" x2="749.101" y2="422.087"/>
			<line fill="none" stroke="#FFFFFF" stroke-miterlimit="10" x1="644.412" y1="312.879" x2="753.619" y2="422.087"/>
			<line fill="none" stroke="#FFFFFF" stroke-miterlimit="10" x1="648.93" y1="312.879" x2="758.138" y2="422.087"/>
			<line fill="none" stroke="#FFFFFF" stroke-miterlimit="10" x1="653.448" y1="312.879" x2="762.656" y2="422.087"/>
			<line fill="none" stroke="#FFFFFF" stroke-miterlimit="10" x1="657.967" y1="312.879" x2="767.174" y2="422.087"/>
			<line fill="none" stroke="#FFFFFF" stroke-miterlimit="10" x1="662.485" y1="312.879" x2="771.693" y2="422.087"/>
			<line fill="none" stroke="#FFFFFF" stroke-miterlimit="10" x1="667.004" y1="312.879" x2="776.21" y2="422.087"/>
			<line fill="none" stroke="#FFFFFF" stroke-miterlimit="10" x1="671.521" y1="312.879" x2="780.729" y2="422.087"/>
			<line fill="none" stroke="#FFFFFF" stroke-miterlimit="10" x1="676.041" y1="312.879" x2="785.246" y2="422.087"/>
			<line fill="none" stroke="#FFFFFF" stroke-miterlimit="10" x1="680.56" y1="312.879" x2="789.766" y2="422.087"/>
			<line fill="none" stroke="#FFFFFF" stroke-miterlimit="10" x1="685.078" y1="312.879" x2="794.282" y2="422.087"/>
			<line fill="none" stroke="#FFFFFF" stroke-miterlimit="10" x1="689.596" y1="312.879" x2="798.802" y2="422.087"/>
			<line fill="none" stroke="#FFFFFF" stroke-miterlimit="10" x1="694.114" y1="312.879" x2="803.318" y2="422.087"/>
			<line fill="none" stroke="#FFFFFF" stroke-miterlimit="10" x1="698.634" y1="312.879" x2="807.838" y2="422.087"/>
			<line fill="none" stroke="#FFFFFF" stroke-miterlimit="10" x1="703.151" y1="312.879" x2="812.354" y2="422.087"/>
			<line fill="none" stroke="#FFFFFF" stroke-miterlimit="10" x1="707.67" y1="312.879" x2="816.874" y2="422.087"/>
			<line fill="none" stroke="#FFFFFF" stroke-miterlimit="10" x1="712.188" y1="312.879" x2="821.391" y2="422.087"/>
			<line fill="none" stroke="#FFFFFF" stroke-miterlimit="10" x1="716.706" y1="312.879" x2="825.909" y2="422.087"/>
			<line fill="none" stroke="#FFFFFF" stroke-miterlimit="10" x1="721.225" y1="312.879" x2="830.427" y2="422.087"/>
			<line fill="none" stroke="#FFFFFF" stroke-miterlimit="10" x1="725.742" y1="312.879" x2="834.945" y2="422.087"/>
		</g>
	</g>
</g>
<g id="圖層_3" display="none">
	<path display="inline" fill="#FFFFFF" d="M804.572,691.092c6.425,1.04,11.398,8.171,11.398,16.818
		c0-8.647,4.975-15.778,11.399-16.818c-6.425-1.042-11.399-8.171-11.399-16.818C815.971,682.921,810.997,690.05,804.572,691.092z"/>
	<path display="inline" fill="none" stroke="#FFFFFF" stroke-miterlimit="10" d="M545.69,663.137c-4.247,0-7.69-3.443-7.69-7.689
		c0,4.246-3.442,7.689-7.69,7.689c4.248,0,7.69,3.443,7.69,7.69C538,666.58,541.443,663.137,545.69,663.137z"/>
	<path display="inline" fill="#FFFFFF" d="M643.289,667.137c-6.37,0-11.535-5.165-11.535-11.534c0,6.369-5.164,11.534-11.535,11.534
		c6.371,0,11.535,5.165,11.535,11.535C631.754,672.302,636.919,667.137,643.289,667.137z"/>
	<polygon display="inline" fill="none" stroke="#FFFFFF" points="383.858,-156.244 296.394,-141.798 296.397,-141.784 
		296.38,-141.786 283.276,-55.855 368.45,-68.108 	"/>
	<polygon display="inline" fill="none" stroke="#C30D23" points="-28.975,-4.344 -41.414,13.017 -41.411,13.019 -41.414,13.021 
		-29.008,29.892 -16.585,13.295 	"/>
	<polygon display="inline" fill="none" stroke="#C30D23" points="-28.975,12.664 -41.414,30.024 -41.411,30.026 -41.414,30.029 
		-29.008,46.899 -16.585,30.303 	"/>
	<polygon display="inline" fill="none" stroke="#C30D23" points="-28.975,29.671 -41.414,47.032 -41.411,47.034 -41.414,47.037 
		-29.008,63.907 -16.585,47.311 	"/>
	<polygon display="inline" fill="none" stroke="#C30D23" points="-28.975,46.679 -41.414,64.04 -41.411,64.042 -41.414,64.044 
		-29.008,80.915 -16.585,64.318 	"/>
	<polygon display="inline" fill="none" stroke="#C30D23" points="-28.975,63.687 -41.414,81.048 -41.411,81.05 -41.414,81.052 
		-29.008,97.923 -16.585,81.326 	"/>
	<polygon display="inline" fill="none" stroke="#C30D23" points="-28.975,80.695 -41.414,98.056 -41.411,98.058 -41.414,98.06 
		-29.008,114.931 -16.585,98.334 	"/>
	<polygon display="inline" fill="none" stroke="#C30D23" points="-28.975,97.703 -41.414,115.063 -41.411,115.065 -41.414,115.068 
		-29.008,131.938 -16.585,115.342 	"/>
	<polygon display="inline" fill="none" stroke="#C30D23" points="-28.975,114.71 -41.414,132.071 -41.411,132.073 -41.414,132.076 
		-29.008,148.946 -16.585,132.35 	"/>
	<polygon display="inline" fill="none" stroke="#C30D23" points="-28.975,131.718 -41.414,149.079 -41.411,149.081 -41.414,149.083 
		-29.008,165.954 -16.585,149.357 	"/>
	<polygon display="inline" fill="none" stroke="#C30D23" points="-28.975,148.726 -41.414,166.087 -41.411,166.089 -41.414,166.091 
		-29.008,182.962 -16.585,166.365 	"/>
	<polygon display="inline" fill="none" stroke="#C30D23" points="-28.975,165.734 -41.414,183.095 -41.411,183.097 -41.414,183.099 
		-29.008,199.97 -16.585,183.373 	"/>
	<polygon display="inline" fill="none" stroke="#C30D23" points="-28.975,182.742 -41.414,200.103 -41.411,200.104 -41.414,200.107 
		-29.008,216.978 -16.585,200.381 	"/>
	<polygon display="inline" fill="none" stroke="#C30D23" points="-28.975,199.75 -41.414,217.11 -41.411,217.112 -41.414,217.115 
		-29.008,233.985 -16.585,217.389 	"/>
	<polygon display="inline" fill="none" stroke="#C30D23" points="-28.975,216.757 -41.414,234.118 -41.411,234.12 -41.414,234.123 
		-29.008,250.993 -16.585,234.396 	"/>
	<polygon display="inline" fill="none" stroke="#C30D23" points="-28.975,233.765 -41.414,251.126 -41.411,251.128 -41.414,251.13 
		-29.008,268.001 -16.585,251.404 	"/>
	<polygon display="inline" fill="none" stroke="#C30D23" points="-28.975,250.773 -41.414,268.134 -41.411,268.136 -41.414,268.138 
		-29.008,285.009 -16.585,268.412 	"/>
	<polygon display="inline" fill="none" stroke="#C30D23" points="-28.975,267.781 -41.414,285.142 -41.411,285.144 -41.414,285.146 
		-29.008,302.017 -16.585,285.42 	"/>
	<polygon display="inline" fill="none" stroke="#C30D23" points="-28.975,284.789 -41.414,302.149 -41.411,302.151 -41.414,302.154 
		-29.008,319.024 -16.585,302.428 	"/>
	<polygon display="inline" fill="none" stroke="#C30D23" points="-28.975,301.797 -41.414,319.157 -41.411,319.159 -41.414,319.162 
		-29.008,336.032 -16.585,319.436 	"/>
	<polygon display="inline" fill="none" stroke="#C30D23" points="-28.975,318.805 -41.414,336.165 -41.411,336.167 -41.414,336.17 
		-29.008,353.04 -16.585,336.443 	"/>
	<polygon display="inline" fill="none" stroke="#C30D23" points="-28.975,335.813 -41.414,353.173 -41.411,353.175 -41.414,353.178 
		-29.008,370.048 -16.585,353.451 	"/>
	<polygon display="inline" fill="none" stroke="#C30D23" points="-28.975,352.82 -41.414,370.181 -41.411,370.183 -41.414,370.186 
		-29.008,387.056 -16.585,370.459 	"/>
	<polygon display="inline" fill="none" stroke="#C30D23" points="-28.975,369.828 -41.414,387.188 -41.411,387.19 -41.414,387.193 
		-29.008,404.063 -16.585,387.467 	"/>
	<polygon display="inline" fill="none" stroke="#C30D23" points="-28.975,386.836 -41.414,404.196 -41.411,404.198 -41.414,404.201 
		-29.008,421.071 -16.585,404.475 	"/>
	<polygon display="inline" fill="none" stroke="#C30D23" points="-28.975,403.844 -41.414,421.204 -41.411,421.206 -41.414,421.209 
		-29.008,438.079 -16.585,421.482 	"/>
	<polygon display="inline" fill="none" stroke="#C30D23" points="-28.975,420.852 -41.414,438.212 -41.411,438.214 -41.414,438.217 
		-29.008,455.087 -16.585,438.49 	"/>
	<polygon display="inline" fill="none" stroke="#C30D23" points="-28.975,437.859 -41.414,455.22 -41.411,455.222 -41.414,455.225 
		-29.008,472.095 -16.585,455.498 	"/>
	<polygon display="inline" fill="none" stroke="#C30D23" points="-28.975,454.867 -41.414,472.228 -41.411,472.229 -41.414,472.232 
		-29.008,489.103 -16.585,472.506 	"/>
	<polygon display="inline" fill="none" stroke="#C30D23" points="-28.975,471.875 -41.414,489.235 -41.411,489.237 -41.414,489.24 
		-29.008,506.11 -16.585,489.514 	"/>
	<polygon display="inline" fill="none" stroke="#C30D23" points="-28.975,488.883 -41.414,506.243 -41.411,506.245 -41.414,506.248 
		-29.008,523.118 -16.585,506.521 	"/>
	<polygon display="inline" fill="none" stroke="#C30D23" points="-28.975,505.891 -41.414,523.251 -41.411,523.253 -41.414,523.256 
		-29.008,540.126 -16.585,523.529 	"/>
	<polygon display="inline" fill="none" stroke="#C30D23" points="-28.975,522.898 -41.414,540.259 -41.411,540.261 -41.414,540.264 
		-29.008,557.134 -16.585,540.537 	"/>
	<polygon display="inline" fill="none" stroke="#C30D23" points="-28.975,539.906 -41.414,557.267 -41.411,557.269 -41.414,557.271 
		-29.008,574.142 -16.585,557.545 	"/>
	<polygon display="inline" fill="none" stroke="#C30D23" points="-28.975,556.914 -41.414,574.274 -41.411,574.276 -41.414,574.279 
		-29.008,591.149 -16.585,574.553 	"/>
	<polygon display="inline" fill="none" stroke="#C30D23" points="-28.975,573.922 -41.414,591.282 -41.411,591.284 -41.414,591.287 
		-29.008,608.157 -16.585,591.561 	"/>
	<polygon display="inline" fill="none" stroke="#C30D23" points="-28.975,590.93 -41.414,608.29 -41.411,608.292 -41.414,608.295 
		-29.008,625.165 -16.585,608.568 	"/>
	<polygon display="inline" fill="none" stroke="#C30D23" points="-28.975,607.938 -41.414,625.298 -41.411,625.3 -41.414,625.303 
		-29.008,642.173 -16.585,625.576 	"/>
	<polygon display="inline" fill="none" stroke="#C30D23" points="-28.975,624.945 -41.414,642.306 -41.411,642.308 -41.414,642.311 
		-29.008,659.181 -16.585,642.584 	"/>
	<polygon display="inline" fill="none" stroke="#C30D23" points="-28.975,641.953 -41.414,659.313 -41.411,659.315 -41.414,659.318 
		-29.008,676.188 -16.585,659.592 	"/>
	<g display="inline">
		<polygon fill="none" stroke="#FFFFFF" points="28.979,-77.01 60.165,-85.367 51.809,-54.18 		"/>
		<path fill="none" stroke="#FFFFFF" d="M59.988-153.181c-16.716,1.463-29.083,16.199-27.62,32.917
			c1.462,16.717,16.2,29.082,32.917,27.62l2.366-0.208l66.848-66.848L59.988-153.181z"/>
		<path fill="none" stroke="#FFFFFF" d="M67.443-90.484l0.207-2.368l66.848-66.848l-6.518,74.513
			c-1.463,16.717-16.2,29.082-32.917,27.619C78.347-59.031,65.981-73.767,67.443-90.484z"/>
	</g>
	<g display="inline">
		<line fill="none" stroke="#FFFFFF" x1="737.435" y1="679.137" x2="761.102" y2="679.137"/>
		<line fill="none" stroke="#FFFFFF" x1="749.268" y1="690.971" x2="749.268" y2="667.304"/>
		<line fill="none" stroke="#FFFFFF" x1="741.737" y1="686.668" x2="756.799" y2="671.606"/>
		<line fill="none" stroke="#FFFFFF" x1="756.799" y1="686.668" x2="741.737" y2="671.606"/>
	</g>
	<g display="inline">
		<line fill="none" stroke="#FFFFFF" x1="125.239" y1="664.927" x2="141.489" y2="664.927"/>
		<line fill="none" stroke="#FFFFFF" x1="133.364" y1="677.853" x2="133.364" y2="652"/>
	</g>
	<g display="inline">
		<line fill="none" stroke="#FFFFFF" x1="247.863" y1="674.273" x2="270.137" y2="652"/>
		<line fill="none" stroke="#FFFFFF" x1="270.137" y1="674.273" x2="247.863" y2="652"/>
	</g>
	<circle display="inline" fill="none" stroke="#FFFFFF" cx="381.204" cy="665.341" r="4.136"/>
	<circle display="inline" fill="#FFFFFF" cx="460.461" cy="671.137" r="8"/>
	
		<rect x="316.333" y="632.997" transform="matrix(0.7071 -0.7071 0.7071 0.7071 -357.43 415.0818)" display="inline" fill="#FFFFFF" width="12" height="12"/>
	<polygon display="inline" fill="none" stroke="#FFFFFF" points="683.623,663.653 683.623,678.62 683.624,678.62 698.592,663.653 	
		"/>
	<g display="inline">
		<defs>
			<path id="SVGID_9_" d="M1013.74,309.191c0,13.469-10.917,24.387-24.387,24.387c-13.469,0-24.386-10.918-24.386-24.387
				s10.917-24.387,24.386-24.387C1002.823,284.805,1013.74,295.723,1013.74,309.191z M989.354,232.857
				c-42.158,0-76.334,34.176-76.334,76.334s34.176,76.334,76.334,76.334c42.159,0,76.335-34.176,76.335-76.334
				S1031.513,232.857,989.354,232.857z"/>
		</defs>
		<clipPath id="SVGID_10_">
			<use xlink:href="#SVGID_9_"  overflow="visible"/>
		</clipPath>
		<g clip-path="url(#SVGID_10_)">
			<rect x="913.021" y="308.692" fill="#FFFFFF" width="152.667" height="1"/>
		</g>
		<g clip-path="url(#SVGID_10_)">
			
				<rect x="988.855" y="232.859" transform="matrix(0.207 0.9783 -0.9783 0.207 1087.0598 -722.7365)" fill="#FFFFFF" width="1" height="152.667"/>
		</g>
		<g clip-path="url(#SVGID_10_)">
			
				<rect x="988.856" y="232.858" transform="matrix(0.4069 0.9135 -0.9135 0.4069 869.2645 -720.3721)" fill="#FFFFFF" width="0.998" height="152.667"/>
		</g>
		<g clip-path="url(#SVGID_10_)">
			
				<rect x="988.855" y="232.859" transform="matrix(0.5881 0.8088 -0.8088 0.5881 657.6398 -672.8404)" fill="#FFFFFF" width="1" height="152.667"/>
		</g>
		<g clip-path="url(#SVGID_10_)">
			
				<rect x="988.855" y="232.858" transform="matrix(0.7433 0.669 -0.669 0.7433 460.811 -582.4721)" fill="#FFFFFF" width="0.999" height="152.667"/>
		</g>
		<g clip-path="url(#SVGID_10_)">
			
				<rect x="988.855" y="232.858" transform="matrix(0.8658 0.5003 -0.5003 0.8658 287.446 -453.5313)" fill="#FFFFFF" width="0.999" height="152.668"/>
		</g>
		<g clip-path="url(#SVGID_10_)">
			
				<rect x="988.855" y="232.858" transform="matrix(0.9512 0.3086 -0.3086 0.9512 143.7052 -290.2241)" fill="#FFFFFF" width="1" height="152.667"/>
		</g>
		<g clip-path="url(#SVGID_10_)">
			
				<rect x="988.855" y="232.858" transform="matrix(0.9945 0.1045 -0.1045 0.9945 37.7407 -101.7255)" fill="#FFFFFF" width="1" height="152.667"/>
		</g>
		<g clip-path="url(#SVGID_10_)">
			
				<rect x="913.02" y="308.692" transform="matrix(0.1045 0.9945 -0.9945 0.1045 1193.4495 -707.0594)" fill="#FFFFFF" width="152.667" height="1"/>
		</g>
		<g clip-path="url(#SVGID_10_)">
			
				<rect x="913.02" y="308.691" transform="matrix(0.309 0.9511 -0.9511 0.309 977.6991 -727.2859)" fill="#FFFFFF" width="152.667" height="1"/>
		</g>
		<g clip-path="url(#SVGID_10_)">
			
				<rect x="913.02" y="308.692" transform="matrix(0.5 0.866 -0.866 0.5 762.4519 -702.2117)" fill="#FFFFFF" width="152.668" height="0.999"/>
		</g>
		<g clip-path="url(#SVGID_10_)">
			
				<rect x="913.02" y="308.692" transform="matrix(0.6691 0.7432 -0.7432 0.6691 557.1328 -632.9366)" fill="#FFFFFF" width="152.668" height="0.999"/>
		</g>
		<g clip-path="url(#SVGID_10_)">
			
				<rect x="913.02" y="308.692" transform="matrix(0.809 0.5878 -0.5878 0.809 370.6948 -522.4822)" fill="#FFFFFF" width="152.669" height="1"/>
		</g>
		<g clip-path="url(#SVGID_10_)">
			
				<rect x="913.02" y="308.692" transform="matrix(0.9135 0.4067 -0.4067 0.9135 211.3008 -375.6835)" fill="#FFFFFF" width="152.668" height="0.999"/>
		</g>
		<g clip-path="url(#SVGID_10_)">
			
				<rect x="913.021" y="308.692" transform="matrix(0.9781 0.2079 -0.2079 0.9781 85.9096 -198.951)" fill="#FFFFFF" width="152.667" height="1"/>
		</g>
	</g>
	<g display="inline">
		<path fill="none" stroke="#FFFFFF" d="M224.433-149.314c15.88,1.389,27.628,15.388,26.238,31.27
			c-1.389,15.88-15.389,27.627-31.27,26.239l-2.247-0.197l-63.503-63.503L224.433-149.314z"/>
		<path fill="none" stroke="#FFFFFF" d="M217.35-89.754l-0.196-2.249l-63.503-63.503l6.191,70.784
			c1.391,15.88,15.39,27.627,31.27,26.237C206.992-59.874,218.74-73.874,217.35-89.754z"/>
	</g>
	<g display="inline">
		<circle fill="none" stroke="#FFFFFF" cx="466.844" cy="-78.819" r="29.011"/>
		<circle fill="none" stroke="#FFFFFF" cx="508.099" cy="-120.074" r="29.01"/>
		<circle fill="none" stroke="#FFFFFF" cx="451.628" cy="-135.061" r="29.01"/>
		<polygon fill="none" stroke="#FFFFFF" points="509.008,-57.281 501.458,-85.459 529.636,-77.908 		"/>
	</g>
</g>
</svg>
